<?xml version="1.0" encoding="UTF-8"?><svg id="a" xmlns="http://www.w3.org/2000/svg" width="562.551" height="182.863" viewBox="0 0 562.551 182.863"><path d="M78.071,99.35l-26.503-26.503c-10.598-10.598-29.135-9.244-41.402,3.024h0c-12.268,12.268-13.622,30.805-3.024,41.402l26.503,26.503" fill="#fff"/><circle cx="77.49" cy="33.598" r="33.598" fill="#fff"/><circle cx="75.07" cy="35.389" r="19.265" fill="#612f88" stroke="#612f88" stroke-miterlimit="10"/><rect x="166.495" y="65.706" width="396.056" height="117.157" fill="none"/><path d="M204.821,96.607h-3.799c-.84-3.919-3.8-6.079-7.999-6.079-6.039,0-9.679,4.759-9.679,11.558,0,7.239,3.479,11.958,9.719,11.958,4.679,0,7.879-3.239,8.238-8.239h3.8c-.8,7.359-5.319,11.438-12.358,11.438-4.079,0-7.318-1.359-9.678-4.039-2.36-2.72-3.52-6.319-3.52-10.838,0-4.439,1.199-8.039,3.639-10.838,2.44-2.8,5.72-4.199,9.879-4.199,6.239,0,10.918,3.479,11.758,9.278Z" fill="#fff"/><path d="M228.222,106.245c0,6.399-3.959,10.798-10.038,10.798-5.999,0-10.038-4.199-10.038-10.798s3.839-10.838,10.038-10.838c6.358,0,10.038,4.519,10.038,10.838ZM218.184,114.044c3.719,0,6.438-3.12,6.438-7.799s-2.72-7.838-6.479-7.838c-3.6,0-6.399,3.039-6.399,7.838,0,4.679,2.68,7.799,6.439,7.799Z" fill="#fff"/><path d="M243.223,103.846v3.199h-11.559v-3.199h11.559Z" fill="#fff"/><path d="M265.341,102.526h-3.52c-.56-2.68-2.399-4.119-5.119-4.119-4.199,0-6.438,2.959-6.438,8.079,0,4.519,2.279,7.559,6.039,7.559,3.279,0,5.239-1.88,5.679-5.039h3.479c-.76,5.159-3.959,8.039-9.118,8.039-6.039,0-9.679-4.08-9.679-10.558,0-6.719,3.68-11.078,9.759-11.078,4.999,0,8.358,2.399,8.918,7.119Z" fill="#fff"/><path d="M272.663,95.887v14.078c0,2.4,1.6,4.08,4.199,4.08,3.959,0,6.119-2.6,6.119-6.359v-11.798h3.399v20.677h-3.2v-3.279h-.079c-1.48,2.64-3.84,3.759-6.72,3.759-4.839,0-7.118-2.52-7.118-7.359v-13.798h3.399Z" fill="#fff"/><path d="M295.102,88.008v28.555h-3.399v-28.555h3.399Z" fill="#fff"/><path d="M305.102,89.688v6.199h4.119v3h-4.119v12.958c0,1.04.32,1.56,1.04,1.64.68.04,1.399.08,2.119.08h.96v3h-2.8c-3.759,0-4.719-1.2-4.719-4.319v-13.358h-3.52v-3h3.52v-6.199h3.399Z" fill="#fff"/><path d="M316.381,95.887v14.078c0,2.4,1.6,4.08,4.199,4.08,3.959,0,6.119-2.6,6.119-6.359v-11.798h3.399v20.677h-3.199v-3.279h-.08c-1.479,2.64-3.84,3.759-6.719,3.759-4.84,0-7.119-2.52-7.119-7.359v-13.798h3.399Z" fill="#fff"/><path d="M345.979,95.407v3.599c-5.079,0-7.479,2.64-7.479,8.319v9.238h-3.399v-20.677h3.199v4.359h.08c1.6-3.279,3.88-4.839,7.119-4.839h.479Z" fill="#fff"/><path d="M363.339,98.606c1.64,2.12,2.439,4.879,2.439,8.239v.4h-15.478v.24c0,3.959,2.439,6.559,6.439,6.559,3.039,0,4.799-1.48,5.358-4.04h3.359c-.92,4.6-4.159,7.039-8.838,7.039-2.16,0-4-.48-5.479-1.44-3.039-2-4.439-5.919-4.439-9.518,0-3.04.88-5.559,2.72-7.599,1.84-2.04,4.199-3.079,6.999-3.079,2.959,0,5.279,1.08,6.919,3.199ZM362.179,104.246c-.2-3.319-2.64-5.839-5.999-5.839-3.199,0-5.599,2.319-5.879,5.839h11.878Z" fill="#fff"/><path d="M395.738,101.886h-3.399v-.04c-.2-2.199-2.08-3.439-4.799-3.439s-4.399.959-4.399,2.639c0,1.52,1.399,2.4,4.199,3.04l3.199.72c3.999.88,6.119,2.599,6.119,5.719,0,4.08-3.399,6.519-8.799,6.519-5.239,0-8.559-2.36-8.758-6.999h3.399c.079,2.56,2.119,4,5.559,4,3.279,0,4.999-1.04,4.999-3.08,0-.92-.439-1.68-1.279-2.2-.84-.52-2.56-1.04-5.159-1.6-5.319-1.12-7.079-2.799-7.079-5.879,0-3.64,3.239-5.879,7.759-5.879,5.559,0,8.158,2.16,8.438,6.479Z" fill="#fff"/><path d="M417.977,102.526h-3.519c-.561-2.68-2.4-4.119-5.119-4.119-4.2,0-6.439,2.959-6.439,8.079,0,4.519,2.279,7.559,6.039,7.559,3.279,0,5.239-1.88,5.679-5.039h3.479c-.76,5.159-3.959,8.039-9.118,8.039-6.039,0-9.679-4.08-9.679-10.558,0-6.719,3.68-11.078,9.759-11.078,4.999,0,8.358,2.399,8.918,7.119Z" fill="#fff"/><path d="M432.658,95.407v3.599c-5.079,0-7.479,2.64-7.479,8.319v9.238h-3.399v-20.677h3.199v4.359h.08c1.6-3.279,3.88-4.839,7.119-4.839h.479Z" fill="#fff"/><path d="M450.018,98.606c1.64,2.12,2.439,4.879,2.439,8.239v.4h-15.478v.24c0,3.959,2.439,6.559,6.439,6.559,3.039,0,4.799-1.48,5.358-4.04h3.359c-.92,4.6-4.159,7.039-8.838,7.039-2.16,0-4-.48-5.479-1.44-3.039-2-4.439-5.919-4.439-9.518,0-3.04.88-5.559,2.72-7.599,1.84-2.04,4.199-3.079,6.999-3.079,2.959,0,5.279,1.08,6.919,3.199ZM448.857,104.246c-.2-3.319-2.64-5.839-5.999-5.839-3.199,0-5.599,2.319-5.879,5.839h11.878Z" fill="#fff"/><path d="M471.497,98.606c1.64,2.12,2.439,4.879,2.439,8.239v.4h-15.478v.24c0,3.959,2.439,6.559,6.439,6.559,3.039,0,4.799-1.48,5.358-4.04h3.359c-.92,4.6-4.159,7.039-8.838,7.039-2.16,0-4-.48-5.479-1.44-3.039-2-4.439-5.919-4.439-9.518,0-3.04.88-5.559,2.72-7.599,1.84-2.04,4.199-3.079,6.999-3.079,2.959,0,5.279,1.08,6.919,3.199ZM470.337,104.246c-.2-3.319-2.64-5.839-5.999-5.839-3.199,0-5.599,2.319-5.879,5.839h11.878Z" fill="#fff"/><path d="M494.576,102.806v13.758h-3.399v-14.118c0-2.28-1.479-4.039-4.239-4.039-3.88,0-6.079,2.599-6.079,6.359v11.798h-3.399v-20.677h3.199v3.28h.08c1.52-2.6,3.68-3.759,6.719-3.759,4.999,0,7.119,2.639,7.119,7.398Z" fill="#fff"/><path d="M503.299,88.008v4.159h-3.399v-4.159h3.399ZM503.299,95.887v20.677h-3.399v-20.677h3.399Z" fill="#fff"/><path d="M525.696,102.806v13.758h-3.399v-14.118c0-2.28-1.479-4.039-4.239-4.039-3.88,0-6.079,2.599-6.079,6.359v11.798h-3.399v-20.677h3.199v3.28h.08c1.52-2.6,3.68-3.759,6.719-3.759,4.999,0,7.119,2.639,7.119,7.398Z" fill="#fff"/><path d="M545.417,98.847h.04v-2.96h3.199v19.117c0,6.519-3.079,9.958-9.559,9.958-4.679,0-8.398-2.08-8.599-6.079h3.399c.12,2.16,2.72,3.359,5.359,3.359,3.999,0,6.199-2.68,6.199-7.919v-1.28h-.08c-1.04,2.28-3.56,3.759-6.439,3.759-5.599,0-9.238-4.239-9.238-10.478,0-6.279,3.439-10.918,9.519-10.918,2.92,0,5.039,1.359,6.199,3.439ZM539.138,113.804c3.76,0,6.159-3.199,6.159-7.999,0-4.359-2.119-7.398-5.919-7.398s-6.079,3-6.079,7.519c0,4.839,2.12,7.878,5.839,7.878Z" fill="#fff"/><path d="M188.863,132.008v28.555h-3.399v-2.799h-.08c-1.08,2.12-3.52,3.279-6.599,3.279-5.799,0-9.519-4.439-9.519-10.878,0-6.319,3.479-10.758,9.398-10.758,2.68,0,5.439,1.16,6.719,3.239h.08v-10.638h3.399ZM179.265,158.044c4.08,0,6.319-3.239,6.319-7.799,0-4.679-2.359-7.838-6.559-7.838-3.92,0-6.159,3.079-6.159,7.999,0,4.359,2.399,7.639,6.398,7.639Z" fill="#fff"/><path d="M210.303,144.966v11.918c0,.76.36,1.16,1.08,1.16.32,0,.72-.08,1.04-.2v2.64c-.64.36-1.479.56-2.439.56-1.84,0-2.88-1.04-2.88-3.2-1.8,2.12-4.239,3.2-7.278,3.2-4.239,0-6.839-2.08-6.839-5.799,0-1.839.6-3.319,1.799-4.399,1.16-1.12,3.92-1.92,8.359-2.479,2.999-.36,3.799-1.08,3.799-2.56,0-2.28-1.399-3.399-4.599-3.399-3.359,0-5,1.24-5.159,3.919h-3.399c.239-4.599,3.359-6.918,8.798-6.918,5.839,0,7.719,2.319,7.719,5.559ZM200.585,158.044c3.959,0,6.318-2.32,6.318-4.599v-3.56c-.56.4-1.479.72-2.399.84l-3.479.52c-2.999.44-4.439,1.6-4.439,3.759,0,1.92,1.48,3.04,4,3.04Z" fill="#fff"/><path d="M220.305,133.688v6.199h4.119v3h-4.119v12.958c0,1.04.319,1.56,1.039,1.64.681.04,1.4.08,2.12.08h.96v3h-2.8c-3.759,0-4.719-1.2-4.719-4.319v-13.358h-3.52v-3h3.52v-6.199h3.399Z" fill="#fff"/><path d="M244.382,144.966v11.918c0,.76.36,1.16,1.08,1.16.32,0,.72-.08,1.04-.2v2.64c-.64.36-1.479.56-2.439.56-1.84,0-2.88-1.04-2.88-3.2-1.8,2.12-4.239,3.2-7.278,3.2-4.239,0-6.839-2.08-6.839-5.799,0-1.839.6-3.319,1.799-4.399,1.16-1.12,3.92-1.92,8.359-2.479,2.999-.36,3.799-1.08,3.799-2.56,0-2.28-1.399-3.399-4.599-3.399-3.359,0-5,1.24-5.159,3.919h-3.399c.239-4.599,3.359-6.918,8.798-6.918,5.839,0,7.719,2.319,7.719,5.559ZM234.664,158.044c3.959,0,6.318-2.32,6.318-4.599v-3.56c-.56.4-1.479.72-2.399.84l-3.479.52c-2.999.44-4.439,1.6-4.439,3.759,0,1.92,1.48,3.04,4,3.04Z" fill="#fff"/><path d="M276.981,144.966v11.918c0,.76.36,1.16,1.08,1.16.32,0,.72-.08,1.04-.2v2.64c-.64.36-1.479.56-2.439.56-1.84,0-2.88-1.04-2.88-3.2-1.8,2.12-4.239,3.2-7.278,3.2-4.239,0-6.839-2.08-6.839-5.799,0-1.839.6-3.319,1.799-4.399,1.16-1.12,3.92-1.92,8.359-2.479,2.999-.36,3.799-1.08,3.799-2.56,0-2.28-1.399-3.399-4.599-3.399-3.359,0-5,1.24-5.159,3.919h-3.399c.239-4.599,3.359-6.918,8.798-6.918,5.839,0,7.719,2.319,7.719,5.559ZM267.264,158.044c3.959,0,6.318-2.32,6.318-4.599v-3.56c-.56.4-1.479.72-2.399.84l-3.479.52c-2.999.44-4.439,1.6-4.439,3.759,0,1.92,1.48,3.04,4,3.04Z" fill="#fff"/><path d="M299.381,146.806v13.758h-3.399v-14.118c0-2.28-1.479-4.039-4.239-4.039-3.879,0-6.079,2.599-6.079,6.359v11.798h-3.399v-20.677h3.199v3.28h.08c1.521-2.6,3.68-3.759,6.72-3.759,4.999,0,7.118,2.639,7.118,7.398Z" fill="#fff"/><path d="M320.701,144.966v11.918c0,.76.36,1.16,1.08,1.16.319,0,.72-.08,1.04-.2v2.64c-.641.36-1.48.56-2.44.56-1.839,0-2.879-1.04-2.879-3.2-1.8,2.12-4.239,3.2-7.279,3.2-4.239,0-6.838-2.08-6.838-5.799,0-1.839.6-3.319,1.799-4.399,1.16-1.12,3.92-1.92,8.358-2.479,3-.36,3.8-1.08,3.8-2.56,0-2.28-1.399-3.399-4.6-3.399-3.359,0-4.999,1.24-5.159,3.919h-3.399c.24-4.599,3.359-6.918,8.799-6.918,5.839,0,7.719,2.319,7.719,5.559ZM310.982,158.044c3.96,0,6.319-2.32,6.319-4.599v-3.56c-.56.4-1.479.72-2.399.84l-3.479.52c-3,.44-4.439,1.6-4.439,3.759,0,1.92,1.479,3.04,3.999,3.04Z" fill="#fff"/><path d="M329.583,132.008v28.555h-3.399v-28.555h3.399Z" fill="#fff"/><path d="M336.462,139.887l6.039,16.917h.08l5.799-16.917h3.6l-8.799,22.876c-1.8,4.799-3.159,6.079-6.198,6.079-.84,0-1.601-.08-2.36-.36v-3.119c.641.2,1.32.48,2,.48,1.399,0,2.359-.68,2.88-2.08l1.319-3.319-8.198-20.557h3.839Z" fill="#fff"/><path d="M370.18,145.886h-3.399v-.04c-.2-2.199-2.08-3.439-4.799-3.439s-4.399.959-4.399,2.639c0,1.52,1.399,2.4,4.199,3.04l3.199.72c3.999.88,6.119,2.599,6.119,5.719,0,4.08-3.399,6.519-8.799,6.519-5.239,0-8.559-2.36-8.758-6.999h3.399c.079,2.56,2.119,4,5.559,4,3.279,0,4.999-1.04,4.999-3.08,0-.92-.439-1.68-1.279-2.2-.84-.52-2.56-1.04-5.159-1.6-5.319-1.12-7.079-2.799-7.079-5.879,0-3.64,3.239-5.879,7.759-5.879,5.559,0,8.158,2.16,8.438,6.479Z" fill="#fff"/><path d="M378.462,132.008v4.159h-3.399v-4.159h3.399ZM378.462,139.887v20.677h-3.399v-20.677h3.399Z" fill="#fff"/><path d="M399.059,145.886h-3.399v-.04c-.2-2.199-2.08-3.439-4.799-3.439s-4.399.959-4.399,2.639c0,1.52,1.399,2.4,4.199,3.04l3.199.72c3.999.88,6.119,2.599,6.119,5.719,0,4.08-3.399,6.519-8.799,6.519-5.239,0-8.559-2.36-8.758-6.999h3.399c.079,2.56,2.119,4,5.559,4,3.279,0,4.999-1.04,4.999-3.08,0-.92-.439-1.68-1.279-2.2-.84-.52-2.56-1.04-5.159-1.6-5.319-1.12-7.079-2.799-7.079-5.879,0-3.64,3.239-5.879,7.759-5.879,5.559,0,8.158,2.16,8.438,6.479Z" fill="#fff"/><path d="M434.578,150.285c0,6.319-3.6,10.758-9.438,10.758-2.56,0-5.239-1.04-6.679-3.24h-.08v10.678h-3.399v-28.595h3.399v2.8h.08c1.08-2.12,3.439-3.279,6.599-3.279,5.999,0,9.519,4.519,9.519,10.878ZM424.779,158.044c3.92,0,6.199-2.959,6.199-7.999,0-4.359-2.399-7.639-6.438-7.639-4.08,0-6.279,3.279-6.279,7.798,0,4.759,2.399,7.839,6.519,7.839Z" fill="#fff"/><path d="M442.181,132.008v28.555h-3.399v-28.555h3.399Z" fill="#fff"/><path d="M463.657,144.966v11.918c0,.76.36,1.16,1.08,1.16.319,0,.72-.08,1.04-.2v2.64c-.641.36-1.48.56-2.44.56-1.839,0-2.879-1.04-2.879-3.2-1.8,2.12-4.239,3.2-7.279,3.2-4.239,0-6.839-2.08-6.839-5.799,0-1.839.601-3.319,1.8-4.399,1.16-1.12,3.92-1.92,8.358-2.479,3-.36,3.8-1.08,3.8-2.56,0-2.28-1.399-3.399-4.6-3.399-3.359,0-4.999,1.24-5.159,3.919h-3.399c.24-4.599,3.359-6.918,8.799-6.918,5.839,0,7.719,2.319,7.719,5.559ZM453.938,158.044c3.96,0,6.319-2.32,6.319-4.599v-3.56c-.56.4-1.479.72-2.399.84l-3.479.52c-3,.44-4.439,1.6-4.439,3.759,0,1.92,1.479,3.04,3.999,3.04Z" fill="#fff"/><path d="M473.658,133.688v6.199h4.12v3h-4.12v12.958c0,1.04.32,1.56,1.04,1.64.68.04,1.4.08,2.12.08h.96v3h-2.8c-3.76,0-4.72-1.2-4.72-4.319v-13.358h-3.519v-3h3.519v-6.199h3.399Z" fill="#fff"/><path d="M490.857,132.008v2.959c-.52-.2-1.399-.28-1.92-.28-1.879,0-2.6.84-2.6,2.239v2.959h4v3h-4v17.677h-3.399v-17.677h-3.479v-3h3.479v-3.239c0-3.04,1.92-4.959,5.68-4.959.52,0,1.76.16,2.239.32Z" fill="#fff"/><path d="M512.336,150.245c0,6.399-3.96,10.798-10.038,10.798-5.999,0-10.039-4.199-10.039-10.798s3.84-10.838,10.039-10.838c6.358,0,10.038,4.519,10.038,10.838ZM502.298,158.044c3.719,0,6.438-3.12,6.438-7.799s-2.72-7.838-6.479-7.838c-3.6,0-6.399,3.039-6.399,7.838,0,4.679,2.68,7.799,6.439,7.799Z" fill="#fff"/><path d="M527.097,139.407v3.599c-5.079,0-7.479,2.64-7.479,8.319v9.238h-3.399v-20.677h3.199v4.359h.08c1.6-3.279,3.88-4.839,7.119-4.839h.479Z" fill="#fff"/><path d="M545.296,142.926c1.399-2.2,3.759-3.519,6.519-3.519,4.64,0,6.839,2.279,6.839,5.879v15.277h-3.399v-13.718c0-2.959-1.2-4.439-3.999-4.439-3.399,0-5.399,2.279-5.399,5.159v12.998h-3.399v-13.718c0-2.959-1.2-4.439-3.879-4.439-1.08,0-2.04.28-2.88.8-1.64,1.04-2.64,3.199-2.64,4.399v12.958h-3.399v-20.677h3.199v3.04h.08c1.56-2.359,3.76-3.519,6.679-3.519,3.04,0,4.96,1.28,5.68,3.519Z" fill="#fff"/><path d="M360.729,24.548h-6.054c-1.339-6.246-6.055-9.687-12.747-9.687-9.624,0-15.424,7.584-15.424,18.419,0,11.536,5.545,19.057,15.488,19.057,7.457,0,12.556-5.162,13.129-13.129h6.054c-1.274,11.727-8.476,18.228-19.694,18.228-6.501,0-11.664-2.167-15.424-6.438-3.76-4.334-5.609-10.07-5.609-17.272,0-7.075,1.912-12.811,5.8-17.272,3.888-4.461,9.114-6.692,15.743-6.692,9.943,0,17.4,5.545,18.738,14.786Z" fill="#1e1e1c"/><path d="M400.117,10.845v5.099h-25.367v14.468h23.646v5.099h-23.646v15.743h25.558v5.099h-31.613V10.845h31.422Z" fill="#1e1e1c"/><path d="M439.696,24.165h-5.737c-.701-6.246-4.461-9.305-11.281-9.305-6.501,0-10.198,2.804-10.198,7.775,0,1.785.828,3.187,2.295,4.398,1.529,1.147,5.608,2.358,12.301,3.696,9.751,1.976,14.531,5.864,14.531,13.13,0,4.27-1.784,7.585-5.226,9.943-3.442,2.422-7.648,3.633-12.556,3.633-10.899,0-18.738-5.609-18.802-16.061h5.737c.064,7.011,5.481,10.962,13.257,10.962,7.33,0,11.536-2.932,11.536-8.286,0-4.27-2.996-6.692-12.811-8.54-6.501-1.275-10.772-2.805-13.003-4.717-2.23-1.976-3.314-4.525-3.314-7.712,0-8.413,7.074-13.321,16.507-13.321,10.07,0,16.699,5.163,16.762,14.404Z" fill="#1e1e1c"/><path d="M360.729,24.548h-6.054c-1.339-6.246-6.055-9.687-12.747-9.687-9.624,0-15.424,7.584-15.424,18.419,0,11.536,5.545,19.057,15.488,19.057,7.457,0,12.556-5.162,13.129-13.129h6.054c-1.274,11.727-8.476,18.228-19.694,18.228-6.501,0-11.664-2.167-15.424-6.438-3.76-4.334-5.609-10.07-5.609-17.272,0-7.075,1.912-12.811,5.8-17.272,3.888-4.461,9.114-6.692,15.743-6.692,9.943,0,17.4,5.545,18.738,14.786Z" fill="#fff"/><path d="M400.117,10.845v5.099h-25.367v14.468h23.646v5.099h-23.646v15.743h25.558v5.099h-31.613V10.845h31.422Z" fill="#fff"/><path d="M439.696,24.165h-5.737c-.701-6.246-4.461-9.305-11.281-9.305-6.501,0-10.198,2.804-10.198,7.775,0,1.785.828,3.187,2.295,4.398,1.529,1.147,5.608,2.358,12.301,3.696,9.751,1.976,14.531,5.864,14.531,13.13,0,4.27-1.784,7.585-5.226,9.943-3.442,2.422-7.648,3.633-12.556,3.633-10.899,0-18.738-5.609-18.802-16.061h5.737c.064,7.011,5.481,10.962,13.257,10.962,7.33,0,11.536-2.932,11.536-8.286,0-4.27-2.996-6.692-12.811-8.54-6.501-1.275-10.772-2.805-13.003-4.717-2.23-1.976-3.314-4.525-3.314-7.712,0-8.413,7.074-13.321,16.507-13.321,10.07,0,16.699,5.163,16.762,14.404Z" fill="#fff"/><path d="M360.729,24.548h-6.054c-1.339-6.246-6.055-9.687-12.747-9.687-9.624,0-15.424,7.584-15.424,18.419,0,11.536,5.545,19.057,15.488,19.057,7.457,0,12.556-5.162,13.129-13.129h6.054c-1.274,11.727-8.476,18.228-19.694,18.228-6.501,0-11.664-2.167-15.424-6.438-3.76-4.334-5.609-10.07-5.609-17.272,0-7.075,1.912-12.811,5.8-17.272,3.888-4.461,9.114-6.692,15.743-6.692,9.943,0,17.4,5.545,18.738,14.786Z" fill="none" stroke="#fff" stroke-miterlimit="10"/><path d="M400.117,10.845v5.099h-25.367v14.468h23.646v5.099h-23.646v15.743h25.558v5.099h-31.613V10.845h31.422Z" fill="none" stroke="#fff" stroke-miterlimit="10"/><path d="M439.696,24.165h-5.737c-.701-6.246-4.461-9.305-11.281-9.305-6.501,0-10.198,2.804-10.198,7.775,0,1.785.828,3.187,2.295,4.398,1.529,1.147,5.608,2.358,12.301,3.696,9.751,1.976,14.531,5.864,14.531,13.13,0,4.27-1.784,7.585-5.226,9.943-3.442,2.422-7.648,3.633-12.556,3.633-10.899,0-18.738-5.609-18.802-16.061h5.737c.064,7.011,5.481,10.962,13.257,10.962,7.33,0,11.536-2.932,11.536-8.286,0-4.27-2.996-6.692-12.811-8.54-6.501-1.275-10.772-2.805-13.003-4.717-2.23-1.976-3.314-4.525-3.314-7.712,0-8.413,7.074-13.321,16.507-13.321,10.07,0,16.699,5.163,16.762,14.404Z" fill="none" stroke="#fff" stroke-miterlimit="10"/><rect x="298.792" y="31.119" width="27.266" height="4.959" transform="translate(624.85 67.197) rotate(180)" fill="#fff" stroke="#fff" stroke-miterlimit="10"/><circle cx="295.437" cy="33.598" r="8" fill="#fff" stroke="#fff" stroke-miterlimit="10"/><path d="M78.071,99.35l26.503-26.503c10.598-10.598,29.135-9.244,41.402,3.024h0c12.268,12.268,13.622,30.805,3.024,41.402l-26.503,26.503" fill="#fff"/><circle cx="68.214" cy="133.592" r="9.857" fill="#fff"/><circle cx="92.413" cy="149.1" r="9.857" fill="#fff"/><circle cx="70.115" cy="166.491" r="9.857" fill="#fff"/><line x1="108.401" y1="33.211" x2="128.273" y2="33.211" fill="none" stroke="#fff" stroke-miterlimit="10" stroke-width="6"/><path d="M140.97,23.258c-7.299-1.062-12.697,5.023-12.697,9.953s5.398,11.014,12.697,9.953" fill="none" stroke="#fff" stroke-miterlimit="10" stroke-width="4"/></svg>