<?xml version="1.0" encoding="UTF-8"?><svg id="a" xmlns="http://www.w3.org/2000/svg" width="690.487" height="300.052" viewBox="0 0 690.487 300.052"><rect x="21.384" y="18.6" width="512" height="280.952" fill="none" stroke="#1d1d1b" stroke-miterlimit="10"/><line x1="277.384" y1="18.6" x2="277.384" y2="299.552" fill="none" stroke="#1d1d1b" stroke-miterlimit="10"/><line x1="21.384" y1="159.076" x2="533.384" y2="159.076" fill="none" stroke="#1d1d1b" stroke-miterlimit="10"/><rect x="21.384" y="18.6" width="28.444" height="14.048" fill="none" stroke="#1d1d1b" stroke-miterlimit="10"/><rect x="49.829" y="18.6" width="28.444" height="14.048" fill="none" stroke="#1d1d1b" stroke-miterlimit="10"/><rect x="78.273" y="18.6" width="28.444" height="14.048" fill="none" stroke="#1d1d1b" stroke-miterlimit="10"/><rect x="106.718" y="18.6" width="28.444" height="14.048" fill="none" stroke="#1d1d1b" stroke-miterlimit="10"/><rect x="135.162" y="18.6" width="28.444" height="14.048" fill="none" stroke="#1d1d1b" stroke-miterlimit="10"/><rect x="163.607" y="18.6" width="28.444" height="14.048" fill="none" stroke="#1d1d1b" stroke-miterlimit="10"/><rect x="192.051" y="18.6" width="28.444" height="14.048" fill="none" stroke="#1d1d1b" stroke-miterlimit="10"/><rect x="220.496" y="18.6" width="28.444" height="14.048" fill="none" stroke="#1d1d1b" stroke-miterlimit="10"/><rect x="248.94" y="18.6" width="28.444" height="14.048" fill="none" stroke="#1d1d1b" stroke-miterlimit="10"/><rect x="21.384" y="32.648" width="28.444" height="14.048" fill="none" stroke="#1d1d1b" stroke-miterlimit="10"/><rect x="49.829" y="32.648" width="28.444" height="14.048" fill="none" stroke="#1d1d1b" stroke-miterlimit="10"/><rect x="78.273" y="32.648" width="28.444" height="14.048" fill="none" stroke="#1d1d1b" stroke-miterlimit="10"/><rect x="106.718" y="32.648" width="28.444" height="14.048" fill="none" stroke="#1d1d1b" stroke-miterlimit="10"/><rect x="135.162" y="32.648" width="28.444" height="14.048" fill="none" stroke="#1d1d1b" stroke-miterlimit="10"/><rect x="163.607" y="32.648" width="28.444" height="14.048" fill="none" stroke="#1d1d1b" stroke-miterlimit="10"/><rect x="192.051" y="32.648" width="28.444" height="14.048" fill="none" stroke="#1d1d1b" stroke-miterlimit="10"/><rect x="220.496" y="32.648" width="28.444" height="14.048" fill="none" stroke="#1d1d1b" stroke-miterlimit="10"/><rect x="248.94" y="32.648" width="28.444" height="14.048" fill="none" stroke="#1d1d1b" stroke-miterlimit="10"/><rect x="21.384" y="46.695" width="28.444" height="14.048" fill="none" stroke="#1d1d1b" stroke-miterlimit="10"/><rect x="49.829" y="46.695" width="28.444" height="14.048" fill="none" stroke="#1d1d1b" stroke-miterlimit="10"/><rect x="78.273" y="46.695" width="28.444" height="14.048" fill="none" stroke="#1d1d1b" stroke-miterlimit="10"/><rect x="106.718" y="46.695" width="28.444" height="14.048" fill="none" stroke="#1d1d1b" stroke-miterlimit="10"/><rect x="135.162" y="46.695" width="28.444" height="14.048" fill="none" stroke="#1d1d1b" stroke-miterlimit="10"/><rect x="163.607" y="46.695" width="28.444" height="14.048" fill="none" stroke="#1d1d1b" stroke-miterlimit="10"/><rect x="192.051" y="46.695" width="28.444" height="14.048" fill="none" stroke="#1d1d1b" stroke-miterlimit="10"/><rect x="220.496" y="46.695" width="28.444" height="14.048" fill="none" stroke="#1d1d1b" stroke-miterlimit="10"/><rect x="248.94" y="46.695" width="28.444" height="14.048" fill="none" stroke="#1d1d1b" stroke-miterlimit="10"/><rect x="21.384" y="60.743" width="28.444" height="14.048" fill="none" stroke="#1d1d1b" stroke-miterlimit="10"/><rect x="49.829" y="60.743" width="28.444" height="14.048" fill="none" stroke="#1d1d1b" stroke-miterlimit="10"/><rect x="78.273" y="60.743" width="28.444" height="14.048" fill="none" stroke="#1d1d1b" stroke-miterlimit="10"/><rect x="106.718" y="60.743" width="28.444" height="14.048" fill="none" stroke="#1d1d1b" stroke-miterlimit="10"/><rect x="135.162" y="60.743" width="28.444" height="14.048" fill="none" stroke="#1d1d1b" stroke-miterlimit="10"/><rect x="163.607" y="60.743" width="28.444" height="14.048" fill="none" stroke="#1d1d1b" stroke-miterlimit="10"/><rect x="192.051" y="60.743" width="28.444" height="14.048" fill="none" stroke="#1d1d1b" stroke-miterlimit="10"/><rect x="220.496" y="60.743" width="28.444" height="14.048" fill="none" stroke="#1d1d1b" stroke-miterlimit="10"/><rect x="248.94" y="60.743" width="28.444" height="14.048" fill="none" stroke="#1d1d1b" stroke-miterlimit="10"/><rect x="21.384" y="74.79" width="28.444" height="14.048" fill="none" stroke="#1d1d1b" stroke-miterlimit="10"/><rect x="49.829" y="74.79" width="28.444" height="14.048" fill="none" stroke="#1d1d1b" stroke-miterlimit="10"/><rect x="78.273" y="74.79" width="28.444" height="14.048" fill="none" stroke="#1d1d1b" stroke-miterlimit="10"/><rect x="106.718" y="74.79" width="28.444" height="14.048" fill="none" stroke="#1d1d1b" stroke-miterlimit="10"/><rect x="135.162" y="74.79" width="28.444" height="14.048" fill="none" stroke="#1d1d1b" stroke-miterlimit="10"/><rect x="163.607" y="74.79" width="28.444" height="14.048" fill="none" stroke="#1d1d1b" stroke-miterlimit="10"/><rect x="192.051" y="74.79" width="28.444" height="14.048" fill="none" stroke="#1d1d1b" stroke-miterlimit="10"/><rect x="220.496" y="74.79" width="28.444" height="14.048" fill="none" stroke="#1d1d1b" stroke-miterlimit="10"/><rect x="248.94" y="74.79" width="28.444" height="14.048" fill="none" stroke="#1d1d1b" stroke-miterlimit="10"/><rect x="21.384" y="88.838" width="28.444" height="14.048" fill="none" stroke="#1d1d1b" stroke-miterlimit="10"/><rect x="49.829" y="88.838" width="28.444" height="14.048" fill="none" stroke="#1d1d1b" stroke-miterlimit="10"/><rect x="78.273" y="88.838" width="28.444" height="14.048" fill="none" stroke="#1d1d1b" stroke-miterlimit="10"/><rect x="106.718" y="88.838" width="28.444" height="14.048" fill="none" stroke="#1d1d1b" stroke-miterlimit="10"/><rect x="135.162" y="88.838" width="28.444" height="14.048" fill="none" stroke="#1d1d1b" stroke-miterlimit="10"/><rect x="163.607" y="88.838" width="28.444" height="14.048" fill="none" stroke="#1d1d1b" stroke-miterlimit="10"/><rect x="192.051" y="88.838" width="28.444" height="14.048" fill="none" stroke="#1d1d1b" stroke-miterlimit="10"/><rect x="220.496" y="88.838" width="28.444" height="14.048" fill="none" stroke="#1d1d1b" stroke-miterlimit="10"/><rect x="248.94" y="88.838" width="28.444" height="14.048" fill="none" stroke="#1d1d1b" stroke-miterlimit="10"/><rect x="21.384" y="102.885" width="28.444" height="14.048" fill="none" stroke="#1d1d1b" stroke-miterlimit="10"/><rect x="49.829" y="102.885" width="28.444" height="14.048" fill="none" stroke="#1d1d1b" stroke-miterlimit="10"/><rect x="78.273" y="102.885" width="28.444" height="14.048" fill="none" stroke="#1d1d1b" stroke-miterlimit="10"/><rect x="106.718" y="102.885" width="28.444" height="14.048" fill="none" stroke="#1d1d1b" stroke-miterlimit="10"/><rect x="135.162" y="102.885" width="28.444" height="14.048" fill="none" stroke="#1d1d1b" stroke-miterlimit="10"/><rect x="163.607" y="102.885" width="28.444" height="14.048" fill="none" stroke="#1d1d1b" stroke-miterlimit="10"/><rect x="192.051" y="102.885" width="28.444" height="14.048" fill="none" stroke="#1d1d1b" stroke-miterlimit="10"/><rect x="220.496" y="102.885" width="28.444" height="14.048" fill="none" stroke="#1d1d1b" stroke-miterlimit="10"/><rect x="248.94" y="102.885" width="28.444" height="14.048" fill="none" stroke="#1d1d1b" stroke-miterlimit="10"/><rect x="21.384" y="116.933" width="28.444" height="14.048" fill="none" stroke="#1d1d1b" stroke-miterlimit="10"/><rect x="49.829" y="116.933" width="28.444" height="14.048" fill="none" stroke="#1d1d1b" stroke-miterlimit="10"/><rect x="78.273" y="116.933" width="28.444" height="14.048" fill="none" stroke="#1d1d1b" stroke-miterlimit="10"/><rect x="106.718" y="116.933" width="28.444" height="14.048" fill="none" stroke="#1d1d1b" stroke-miterlimit="10"/><rect x="135.162" y="116.933" width="28.444" height="14.048" fill="none" stroke="#1d1d1b" stroke-miterlimit="10"/><rect x="163.607" y="116.933" width="28.444" height="14.048" fill="none" stroke="#1d1d1b" stroke-miterlimit="10"/><rect x="192.051" y="116.933" width="28.444" height="14.048" fill="none" stroke="#1d1d1b" stroke-miterlimit="10"/><rect x="220.496" y="116.933" width="28.444" height="14.048" fill="none" stroke="#1d1d1b" stroke-miterlimit="10"/><rect x="248.94" y="116.933" width="28.444" height="14.048" fill="none" stroke="#1d1d1b" stroke-miterlimit="10"/><rect x="21.384" y="130.981" width="28.444" height="14.048" fill="none" stroke="#1d1d1b" stroke-miterlimit="10"/><rect x="49.829" y="130.981" width="28.444" height="14.048" fill="none" stroke="#1d1d1b" stroke-miterlimit="10"/><rect x="78.273" y="130.981" width="28.444" height="14.048" fill="none" stroke="#1d1d1b" stroke-miterlimit="10"/><rect x="106.718" y="130.981" width="28.444" height="14.048" fill="none" stroke="#1d1d1b" stroke-miterlimit="10"/><rect x="135.162" y="130.981" width="28.444" height="14.048" fill="none" stroke="#1d1d1b" stroke-miterlimit="10"/><rect x="163.607" y="130.981" width="28.444" height="14.048" fill="none" stroke="#1d1d1b" stroke-miterlimit="10"/><rect x="192.051" y="130.981" width="28.444" height="14.048" fill="none" stroke="#1d1d1b" stroke-miterlimit="10"/><rect x="220.496" y="130.981" width="28.444" height="14.048" fill="none" stroke="#1d1d1b" stroke-miterlimit="10"/><rect x="248.94" y="130.981" width="28.444" height="14.048" fill="none" stroke="#1d1d1b" stroke-miterlimit="10"/><rect x="21.384" y="145.028" width="28.444" height="14.048" fill="none" stroke="#1d1d1b" stroke-miterlimit="10"/><rect x="49.829" y="145.028" width="28.444" height="14.048" fill="none" stroke="#1d1d1b" stroke-miterlimit="10"/><rect x="78.273" y="145.028" width="28.444" height="14.048" fill="none" stroke="#1d1d1b" stroke-miterlimit="10"/><rect x="106.718" y="145.028" width="28.444" height="14.048" fill="none" stroke="#1d1d1b" stroke-miterlimit="10"/><rect x="135.162" y="145.028" width="28.444" height="14.048" fill="none" stroke="#1d1d1b" stroke-miterlimit="10"/><rect x="163.607" y="145.028" width="28.444" height="14.048" fill="none" stroke="#1d1d1b" stroke-miterlimit="10"/><rect x="192.051" y="145.028" width="28.444" height="14.048" fill="none" stroke="#1d1d1b" stroke-miterlimit="10"/><rect x="220.496" y="145.028" width="28.444" height="14.048" fill="none" stroke="#1d1d1b" stroke-miterlimit="10"/><rect x="248.94" y="145.028" width="28.444" height="14.048" fill="none" stroke="#1d1d1b" stroke-miterlimit="10"/><rect x="21.384" y="159.076" width="28.444" height="14.048" fill="none" stroke="#1d1d1b" stroke-miterlimit="10"/><rect x="49.829" y="159.076" width="28.444" height="14.048" fill="none" stroke="#1d1d1b" stroke-miterlimit="10"/><rect x="78.273" y="159.076" width="28.444" height="14.048" fill="none" stroke="#1d1d1b" stroke-miterlimit="10"/><rect x="106.718" y="159.076" width="28.444" height="14.048" fill="none" stroke="#1d1d1b" stroke-miterlimit="10"/><rect x="135.162" y="159.076" width="28.444" height="14.048" fill="none" stroke="#1d1d1b" stroke-miterlimit="10"/><rect x="163.607" y="159.076" width="28.444" height="14.048" fill="none" stroke="#1d1d1b" stroke-miterlimit="10"/><rect x="192.051" y="159.076" width="28.444" height="14.048" fill="none" stroke="#1d1d1b" stroke-miterlimit="10"/><rect x="220.496" y="159.076" width="28.444" height="14.048" fill="none" stroke="#1d1d1b" stroke-miterlimit="10"/><rect x="248.94" y="159.076" width="28.444" height="14.048" fill="none" stroke="#1d1d1b" stroke-miterlimit="10"/><rect x="21.384" y="173.123" width="28.444" height="14.048" fill="none" stroke="#1d1d1b" stroke-miterlimit="10"/><rect x="49.829" y="173.123" width="28.444" height="14.048" fill="none" stroke="#1d1d1b" stroke-miterlimit="10"/><rect x="78.273" y="173.123" width="28.444" height="14.048" fill="none" stroke="#1d1d1b" stroke-miterlimit="10"/><rect x="106.718" y="173.123" width="28.444" height="14.048" fill="none" stroke="#1d1d1b" stroke-miterlimit="10"/><rect x="135.162" y="173.123" width="28.444" height="14.048" fill="none" stroke="#1d1d1b" stroke-miterlimit="10"/><rect x="163.607" y="173.123" width="28.444" height="14.048" fill="none" stroke="#1d1d1b" stroke-miterlimit="10"/><rect x="192.051" y="173.123" width="28.444" height="14.048" fill="none" stroke="#1d1d1b" stroke-miterlimit="10"/><rect x="220.496" y="173.123" width="28.444" height="14.048" fill="none" stroke="#1d1d1b" stroke-miterlimit="10"/><rect x="248.94" y="173.123" width="28.444" height="14.048" fill="none" stroke="#1d1d1b" stroke-miterlimit="10"/><rect x="21.384" y="187.171" width="28.444" height="14.048" fill="none" stroke="#1d1d1b" stroke-miterlimit="10"/><rect x="49.829" y="187.171" width="28.444" height="14.048" fill="none" stroke="#1d1d1b" stroke-miterlimit="10"/><rect x="78.273" y="187.171" width="28.444" height="14.048" fill="none" stroke="#1d1d1b" stroke-miterlimit="10"/><rect x="106.718" y="187.171" width="28.444" height="14.048" fill="none" stroke="#1d1d1b" stroke-miterlimit="10"/><rect x="135.162" y="187.171" width="28.444" height="14.048" fill="none" stroke="#1d1d1b" stroke-miterlimit="10"/><rect x="163.607" y="187.171" width="28.444" height="14.048" fill="none" stroke="#1d1d1b" stroke-miterlimit="10"/><rect x="192.051" y="187.171" width="28.444" height="14.048" fill="none" stroke="#1d1d1b" stroke-miterlimit="10"/><rect x="220.496" y="187.171" width="28.444" height="14.048" fill="none" stroke="#1d1d1b" stroke-miterlimit="10"/><rect x="248.94" y="187.171" width="28.444" height="14.048" fill="none" stroke="#1d1d1b" stroke-miterlimit="10"/><rect x="21.384" y="201.218" width="28.444" height="14.048" fill="none" stroke="#1d1d1b" stroke-miterlimit="10"/><rect x="49.829" y="201.218" width="28.444" height="14.048" fill="none" stroke="#1d1d1b" stroke-miterlimit="10"/><rect x="78.273" y="201.218" width="28.444" height="14.048" fill="none" stroke="#1d1d1b" stroke-miterlimit="10"/><rect x="106.718" y="201.218" width="28.444" height="14.048" fill="none" stroke="#1d1d1b" stroke-miterlimit="10"/><rect x="135.162" y="201.218" width="28.444" height="14.048" fill="none" stroke="#1d1d1b" stroke-miterlimit="10"/><rect x="163.607" y="201.218" width="28.444" height="14.048" fill="none" stroke="#1d1d1b" stroke-miterlimit="10"/><rect x="192.051" y="201.218" width="28.444" height="14.048" fill="none" stroke="#1d1d1b" stroke-miterlimit="10"/><rect x="220.496" y="201.218" width="28.444" height="14.048" fill="none" stroke="#1d1d1b" stroke-miterlimit="10"/><rect x="248.94" y="201.218" width="28.444" height="14.048" fill="none" stroke="#1d1d1b" stroke-miterlimit="10"/><rect x="21.384" y="215.266" width="28.444" height="14.048" fill="none" stroke="#1d1d1b" stroke-miterlimit="10"/><rect x="49.829" y="215.266" width="28.444" height="14.048" fill="none" stroke="#1d1d1b" stroke-miterlimit="10"/><rect x="78.273" y="215.266" width="28.444" height="14.048" fill="none" stroke="#1d1d1b" stroke-miterlimit="10"/><rect x="106.718" y="215.266" width="28.444" height="14.048" fill="none" stroke="#1d1d1b" stroke-miterlimit="10"/><rect x="135.162" y="215.266" width="28.444" height="14.048" fill="none" stroke="#1d1d1b" stroke-miterlimit="10"/><rect x="163.607" y="215.266" width="28.444" height="14.048" fill="none" stroke="#1d1d1b" stroke-miterlimit="10"/><rect x="192.051" y="215.266" width="28.444" height="14.048" fill="none" stroke="#1d1d1b" stroke-miterlimit="10"/><rect x="220.496" y="215.266" width="28.444" height="14.048" fill="none" stroke="#1d1d1b" stroke-miterlimit="10"/><rect x="248.94" y="215.266" width="28.444" height="14.048" fill="none" stroke="#1d1d1b" stroke-miterlimit="10"/><rect x="21.384" y="229.314" width="28.444" height="14.048" fill="none" stroke="#1d1d1b" stroke-miterlimit="10"/><rect x="49.829" y="229.314" width="28.444" height="14.048" fill="none" stroke="#1d1d1b" stroke-miterlimit="10"/><rect x="78.273" y="229.314" width="28.444" height="14.048" fill="none" stroke="#1d1d1b" stroke-miterlimit="10"/><rect x="106.718" y="229.314" width="28.444" height="14.048" fill="none" stroke="#1d1d1b" stroke-miterlimit="10"/><rect x="135.162" y="229.314" width="28.444" height="14.048" fill="none" stroke="#1d1d1b" stroke-miterlimit="10"/><rect x="163.607" y="229.314" width="28.444" height="14.048" fill="none" stroke="#1d1d1b" stroke-miterlimit="10"/><rect x="192.051" y="229.314" width="28.444" height="14.048" fill="none" stroke="#1d1d1b" stroke-miterlimit="10"/><rect x="220.496" y="229.314" width="28.444" height="14.048" fill="none" stroke="#1d1d1b" stroke-miterlimit="10"/><rect x="248.94" y="229.314" width="28.444" height="14.048" fill="none" stroke="#1d1d1b" stroke-miterlimit="10"/><rect x="21.384" y="243.361" width="28.444" height="14.048" fill="none" stroke="#1d1d1b" stroke-miterlimit="10"/><rect x="49.829" y="243.361" width="28.444" height="14.048" fill="none" stroke="#1d1d1b" stroke-miterlimit="10"/><rect x="78.273" y="243.361" width="28.444" height="14.048" fill="none" stroke="#1d1d1b" stroke-miterlimit="10"/><rect x="106.718" y="243.361" width="28.444" height="14.048" fill="none" stroke="#1d1d1b" stroke-miterlimit="10"/><rect x="135.162" y="243.361" width="28.444" height="14.048" fill="none" stroke="#1d1d1b" stroke-miterlimit="10"/><rect x="163.607" y="243.361" width="28.444" height="14.048" fill="none" stroke="#1d1d1b" stroke-miterlimit="10"/><rect x="192.051" y="243.361" width="28.444" height="14.048" fill="none" stroke="#1d1d1b" stroke-miterlimit="10"/><rect x="220.496" y="243.361" width="28.444" height="14.048" fill="none" stroke="#1d1d1b" stroke-miterlimit="10"/><rect x="248.94" y="243.361" width="28.444" height="14.048" fill="none" stroke="#1d1d1b" stroke-miterlimit="10"/><rect x="21.384" y="257.409" width="28.444" height="14.048" fill="none" stroke="#1d1d1b" stroke-miterlimit="10"/><rect x="49.829" y="257.409" width="28.444" height="14.048" fill="none" stroke="#1d1d1b" stroke-miterlimit="10"/><rect x="78.273" y="257.409" width="28.444" height="14.048" fill="none" stroke="#1d1d1b" stroke-miterlimit="10"/><rect x="106.718" y="257.409" width="28.444" height="14.048" fill="none" stroke="#1d1d1b" stroke-miterlimit="10"/><rect x="135.162" y="257.409" width="28.444" height="14.048" fill="none" stroke="#1d1d1b" stroke-miterlimit="10"/><rect x="163.607" y="257.409" width="28.444" height="14.048" fill="none" stroke="#1d1d1b" stroke-miterlimit="10"/><rect x="192.051" y="257.409" width="28.444" height="14.048" fill="none" stroke="#1d1d1b" stroke-miterlimit="10"/><rect x="220.496" y="257.409" width="28.444" height="14.048" fill="none" stroke="#1d1d1b" stroke-miterlimit="10"/><rect x="248.94" y="257.409" width="28.444" height="14.048" fill="none" stroke="#1d1d1b" stroke-miterlimit="10"/><rect x="21.384" y="271.456" width="28.444" height="14.048" fill="none" stroke="#1d1d1b" stroke-miterlimit="10"/><rect x="49.829" y="271.456" width="28.444" height="14.048" fill="none" stroke="#1d1d1b" stroke-miterlimit="10"/><rect x="78.273" y="271.456" width="28.444" height="14.048" fill="none" stroke="#1d1d1b" stroke-miterlimit="10"/><rect x="106.718" y="271.456" width="28.444" height="14.048" fill="none" stroke="#1d1d1b" stroke-miterlimit="10"/><rect x="135.162" y="271.456" width="28.444" height="14.048" fill="none" stroke="#1d1d1b" stroke-miterlimit="10"/><rect x="163.607" y="271.456" width="28.444" height="14.048" fill="none" stroke="#1d1d1b" stroke-miterlimit="10"/><rect x="192.051" y="271.456" width="28.444" height="14.048" fill="none" stroke="#1d1d1b" stroke-miterlimit="10"/><rect x="220.496" y="271.456" width="28.444" height="14.048" fill="none" stroke="#1d1d1b" stroke-miterlimit="10"/><rect x="248.94" y="271.456" width="28.444" height="14.048" fill="none" stroke="#1d1d1b" stroke-miterlimit="10"/><rect x="21.384" y="285.504" width="28.444" height="14.048" fill="none" stroke="#1d1d1b" stroke-miterlimit="10"/><rect x="49.829" y="285.504" width="28.444" height="14.048" fill="none" stroke="#1d1d1b" stroke-miterlimit="10"/><rect x="78.273" y="285.504" width="28.444" height="14.048" fill="none" stroke="#1d1d1b" stroke-miterlimit="10"/><rect x="106.718" y="285.504" width="28.444" height="14.048" fill="none" stroke="#1d1d1b" stroke-miterlimit="10"/><rect x="135.162" y="285.504" width="28.444" height="14.048" fill="none" stroke="#1d1d1b" stroke-miterlimit="10"/><rect x="163.607" y="285.504" width="28.444" height="14.048" fill="none" stroke="#1d1d1b" stroke-miterlimit="10"/><rect x="192.051" y="285.504" width="28.444" height="14.048" fill="none" stroke="#1d1d1b" stroke-miterlimit="10"/><rect x="220.496" y="285.504" width="28.444" height="14.048" fill="none" stroke="#1d1d1b" stroke-miterlimit="10"/><rect x="248.94" y="285.504" width="28.444" height="14.048" fill="none" stroke="#1d1d1b" stroke-miterlimit="10"/><rect x="277.384" y="18.6" width="28.444" height="14.048" fill="none" stroke="#1d1d1b" stroke-miterlimit="10"/><rect x="305.829" y="18.6" width="28.444" height="14.048" fill="none" stroke="#1d1d1b" stroke-miterlimit="10"/><rect x="334.273" y="18.6" width="28.444" height="14.048" fill="none" stroke="#1d1d1b" stroke-miterlimit="10"/><rect x="362.718" y="18.6" width="28.444" height="14.048" fill="none" stroke="#1d1d1b" stroke-miterlimit="10"/><rect x="391.162" y="18.6" width="28.444" height="14.048" fill="none" stroke="#1d1d1b" stroke-miterlimit="10"/><rect x="419.607" y="18.6" width="28.444" height="14.048" fill="none" stroke="#1d1d1b" stroke-miterlimit="10"/><rect x="448.051" y="18.6" width="28.444" height="14.048" fill="none" stroke="#1d1d1b" stroke-miterlimit="10"/><rect x="476.496" y="18.6" width="28.444" height="14.048" fill="none" stroke="#1d1d1b" stroke-miterlimit="10"/><rect x="504.94" y="18.6" width="28.444" height="14.048" fill="none" stroke="#1d1d1b" stroke-miterlimit="10"/><rect x="277.384" y="32.648" width="28.444" height="14.048" fill="none" stroke="#1d1d1b" stroke-miterlimit="10"/><rect x="305.829" y="32.648" width="28.444" height="14.048" fill="none" stroke="#1d1d1b" stroke-miterlimit="10"/><rect x="334.273" y="32.648" width="28.444" height="14.048" fill="none" stroke="#1d1d1b" stroke-miterlimit="10"/><rect x="362.718" y="32.648" width="28.444" height="14.048" fill="none" stroke="#1d1d1b" stroke-miterlimit="10"/><rect x="391.162" y="32.648" width="28.444" height="14.048" fill="none" stroke="#1d1d1b" stroke-miterlimit="10"/><rect x="419.607" y="32.648" width="28.444" height="14.048" fill="none" stroke="#1d1d1b" stroke-miterlimit="10"/><rect x="448.051" y="32.648" width="28.444" height="14.048" fill="none" stroke="#1d1d1b" stroke-miterlimit="10"/><rect x="476.496" y="32.648" width="28.444" height="14.048" fill="none" stroke="#1d1d1b" stroke-miterlimit="10"/><rect x="504.94" y="32.648" width="28.444" height="14.048" fill="none" stroke="#1d1d1b" stroke-miterlimit="10"/><rect x="277.384" y="46.695" width="28.444" height="14.048" fill="none" stroke="#1d1d1b" stroke-miterlimit="10"/><rect x="305.829" y="46.695" width="28.444" height="14.048" fill="none" stroke="#1d1d1b" stroke-miterlimit="10"/><rect x="334.273" y="46.695" width="28.444" height="14.048" fill="none" stroke="#1d1d1b" stroke-miterlimit="10"/><rect x="362.718" y="46.695" width="28.444" height="14.048" fill="none" stroke="#1d1d1b" stroke-miterlimit="10"/><rect x="391.162" y="46.695" width="28.444" height="14.048" fill="none" stroke="#1d1d1b" stroke-miterlimit="10"/><rect x="419.607" y="46.695" width="28.444" height="14.048" fill="none" stroke="#1d1d1b" stroke-miterlimit="10"/><rect x="448.051" y="46.695" width="28.444" height="14.048" fill="none" stroke="#1d1d1b" stroke-miterlimit="10"/><rect x="476.496" y="46.695" width="28.444" height="14.048" fill="none" stroke="#1d1d1b" stroke-miterlimit="10"/><rect x="504.94" y="46.695" width="28.444" height="14.048" fill="none" stroke="#1d1d1b" stroke-miterlimit="10"/><rect x="277.384" y="60.743" width="28.444" height="14.048" fill="none" stroke="#1d1d1b" stroke-miterlimit="10"/><rect x="305.829" y="60.743" width="28.444" height="14.048" fill="none" stroke="#1d1d1b" stroke-miterlimit="10"/><rect x="334.273" y="60.743" width="28.444" height="14.048" fill="none" stroke="#1d1d1b" stroke-miterlimit="10"/><rect x="362.718" y="60.743" width="28.444" height="14.048" fill="none" stroke="#1d1d1b" stroke-miterlimit="10"/><rect x="391.162" y="60.743" width="28.444" height="14.048" fill="none" stroke="#1d1d1b" stroke-miterlimit="10"/><rect x="419.607" y="60.743" width="28.444" height="14.048" fill="none" stroke="#1d1d1b" stroke-miterlimit="10"/><rect x="448.051" y="60.743" width="28.444" height="14.048" fill="none" stroke="#1d1d1b" stroke-miterlimit="10"/><rect x="476.496" y="60.743" width="28.444" height="14.048" fill="none" stroke="#1d1d1b" stroke-miterlimit="10"/><rect x="504.94" y="60.743" width="28.444" height="14.048" fill="none" stroke="#1d1d1b" stroke-miterlimit="10"/><rect x="277.384" y="74.79" width="28.444" height="14.048" fill="none" stroke="#1d1d1b" stroke-miterlimit="10"/><rect x="305.829" y="74.79" width="28.444" height="14.048" fill="none" stroke="#1d1d1b" stroke-miterlimit="10"/><rect x="334.273" y="74.79" width="28.444" height="14.048" fill="none" stroke="#1d1d1b" stroke-miterlimit="10"/><rect x="362.718" y="74.79" width="28.444" height="14.048" fill="none" stroke="#1d1d1b" stroke-miterlimit="10"/><rect x="391.162" y="74.79" width="28.444" height="14.048" fill="none" stroke="#1d1d1b" stroke-miterlimit="10"/><rect x="419.607" y="74.79" width="28.444" height="14.048" fill="none" stroke="#1d1d1b" stroke-miterlimit="10"/><rect x="448.051" y="74.79" width="28.444" height="14.048" fill="none" stroke="#1d1d1b" stroke-miterlimit="10"/><rect x="476.496" y="74.79" width="28.444" height="14.048" fill="none" stroke="#1d1d1b" stroke-miterlimit="10"/><rect x="504.94" y="74.79" width="28.444" height="14.048" fill="none" stroke="#1d1d1b" stroke-miterlimit="10"/><rect x="277.384" y="88.838" width="28.444" height="14.048" fill="none" stroke="#1d1d1b" stroke-miterlimit="10"/><rect x="305.829" y="88.838" width="28.444" height="14.048" fill="none" stroke="#1d1d1b" stroke-miterlimit="10"/><rect x="334.273" y="88.838" width="28.444" height="14.048" fill="none" stroke="#1d1d1b" stroke-miterlimit="10"/><rect x="362.718" y="88.838" width="28.444" height="14.048" fill="none" stroke="#1d1d1b" stroke-miterlimit="10"/><rect x="391.162" y="88.838" width="28.444" height="14.048" fill="none" stroke="#1d1d1b" stroke-miterlimit="10"/><rect x="419.607" y="88.838" width="28.444" height="14.048" fill="none" stroke="#1d1d1b" stroke-miterlimit="10"/><rect x="448.051" y="88.838" width="28.444" height="14.048" fill="none" stroke="#1d1d1b" stroke-miterlimit="10"/><rect x="476.496" y="88.838" width="28.444" height="14.048" fill="none" stroke="#1d1d1b" stroke-miterlimit="10"/><rect x="504.94" y="88.838" width="28.444" height="14.048" fill="none" stroke="#1d1d1b" stroke-miterlimit="10"/><rect x="277.384" y="102.885" width="28.444" height="14.048" fill="none" stroke="#1d1d1b" stroke-miterlimit="10"/><rect x="305.829" y="102.885" width="28.444" height="14.048" fill="none" stroke="#1d1d1b" stroke-miterlimit="10"/><rect x="334.273" y="102.885" width="28.444" height="14.048" fill="none" stroke="#1d1d1b" stroke-miterlimit="10"/><rect x="362.718" y="102.885" width="28.444" height="14.048" fill="none" stroke="#1d1d1b" stroke-miterlimit="10"/><rect x="391.162" y="102.885" width="28.444" height="14.048" fill="none" stroke="#1d1d1b" stroke-miterlimit="10"/><rect x="419.607" y="102.885" width="28.444" height="14.048" fill="none" stroke="#1d1d1b" stroke-miterlimit="10"/><rect x="448.051" y="102.885" width="28.444" height="14.048" fill="none" stroke="#1d1d1b" stroke-miterlimit="10"/><rect x="476.496" y="102.885" width="28.444" height="14.048" fill="none" stroke="#1d1d1b" stroke-miterlimit="10"/><rect x="504.94" y="102.885" width="28.444" height="14.048" fill="none" stroke="#1d1d1b" stroke-miterlimit="10"/><rect x="277.384" y="116.933" width="28.444" height="14.048" fill="none" stroke="#1d1d1b" stroke-miterlimit="10"/><rect x="305.829" y="116.933" width="28.444" height="14.048" fill="none" stroke="#1d1d1b" stroke-miterlimit="10"/><rect x="334.273" y="116.933" width="28.444" height="14.048" fill="none" stroke="#1d1d1b" stroke-miterlimit="10"/><rect x="362.718" y="116.933" width="28.444" height="14.048" fill="none" stroke="#1d1d1b" stroke-miterlimit="10"/><rect x="391.162" y="116.933" width="28.444" height="14.048" fill="none" stroke="#1d1d1b" stroke-miterlimit="10"/><rect x="419.607" y="116.933" width="28.444" height="14.048" fill="none" stroke="#1d1d1b" stroke-miterlimit="10"/><rect x="448.051" y="116.933" width="28.444" height="14.048" fill="none" stroke="#1d1d1b" stroke-miterlimit="10"/><rect x="476.496" y="116.933" width="28.444" height="14.048" fill="none" stroke="#1d1d1b" stroke-miterlimit="10"/><rect x="504.94" y="116.933" width="28.444" height="14.048" fill="none" stroke="#1d1d1b" stroke-miterlimit="10"/><rect x="277.384" y="130.981" width="28.444" height="14.048" fill="none" stroke="#1d1d1b" stroke-miterlimit="10"/><rect x="305.829" y="130.981" width="28.444" height="14.048" fill="none" stroke="#1d1d1b" stroke-miterlimit="10"/><rect x="334.273" y="130.981" width="28.444" height="14.048" fill="none" stroke="#1d1d1b" stroke-miterlimit="10"/><rect x="362.718" y="130.981" width="28.444" height="14.048" fill="none" stroke="#1d1d1b" stroke-miterlimit="10"/><rect x="391.162" y="130.981" width="28.444" height="14.048" fill="none" stroke="#1d1d1b" stroke-miterlimit="10"/><rect x="419.607" y="130.981" width="28.444" height="14.048" fill="none" stroke="#1d1d1b" stroke-miterlimit="10"/><rect x="448.051" y="130.981" width="28.444" height="14.048" fill="none" stroke="#1d1d1b" stroke-miterlimit="10"/><rect x="476.496" y="130.981" width="28.444" height="14.048" fill="none" stroke="#1d1d1b" stroke-miterlimit="10"/><rect x="504.94" y="130.981" width="28.444" height="14.048" fill="none" stroke="#1d1d1b" stroke-miterlimit="10"/><rect x="277.384" y="145.028" width="28.444" height="14.048" fill="none" stroke="#1d1d1b" stroke-miterlimit="10"/><rect x="305.829" y="145.028" width="28.444" height="14.048" fill="none" stroke="#1d1d1b" stroke-miterlimit="10"/><rect x="334.273" y="145.028" width="28.444" height="14.048" fill="none" stroke="#1d1d1b" stroke-miterlimit="10"/><rect x="362.718" y="145.028" width="28.444" height="14.048" fill="none" stroke="#1d1d1b" stroke-miterlimit="10"/><rect x="391.162" y="145.028" width="28.444" height="14.048" fill="none" stroke="#1d1d1b" stroke-miterlimit="10"/><rect x="419.607" y="145.028" width="28.444" height="14.048" fill="none" stroke="#1d1d1b" stroke-miterlimit="10"/><rect x="448.051" y="145.028" width="28.444" height="14.048" fill="none" stroke="#1d1d1b" stroke-miterlimit="10"/><rect x="476.496" y="145.028" width="28.444" height="14.048" fill="none" stroke="#1d1d1b" stroke-miterlimit="10"/><rect x="504.94" y="145.028" width="28.444" height="14.048" fill="none" stroke="#1d1d1b" stroke-miterlimit="10"/><rect x="277.384" y="159.076" width="28.444" height="14.048" fill="none" stroke="#1d1d1b" stroke-miterlimit="10"/><rect x="305.829" y="159.076" width="28.444" height="14.048" fill="none" stroke="#1d1d1b" stroke-miterlimit="10"/><rect x="334.273" y="159.076" width="28.444" height="14.048" fill="none" stroke="#1d1d1b" stroke-miterlimit="10"/><rect x="362.718" y="159.076" width="28.444" height="14.048" fill="none" stroke="#1d1d1b" stroke-miterlimit="10"/><rect x="391.162" y="159.076" width="28.444" height="14.048" fill="none" stroke="#1d1d1b" stroke-miterlimit="10"/><rect x="419.607" y="159.076" width="28.444" height="14.048" fill="none" stroke="#1d1d1b" stroke-miterlimit="10"/><rect x="448.051" y="159.076" width="28.444" height="14.048" fill="none" stroke="#1d1d1b" stroke-miterlimit="10"/><rect x="476.496" y="159.076" width="28.444" height="14.048" fill="none" stroke="#1d1d1b" stroke-miterlimit="10"/><rect x="504.94" y="159.076" width="28.444" height="14.048" fill="none" stroke="#1d1d1b" stroke-miterlimit="10"/><rect x="277.384" y="173.123" width="28.444" height="14.048" fill="none" stroke="#1d1d1b" stroke-miterlimit="10"/><rect x="305.829" y="173.123" width="28.444" height="14.048" fill="none" stroke="#1d1d1b" stroke-miterlimit="10"/><rect x="334.273" y="173.123" width="28.444" height="14.048" fill="none" stroke="#1d1d1b" stroke-miterlimit="10"/><rect x="362.718" y="173.123" width="28.444" height="14.048" fill="none" stroke="#1d1d1b" stroke-miterlimit="10"/><rect x="391.162" y="173.123" width="28.444" height="14.048" fill="none" stroke="#1d1d1b" stroke-miterlimit="10"/><rect x="419.607" y="173.123" width="28.444" height="14.048" fill="none" stroke="#1d1d1b" stroke-miterlimit="10"/><rect x="448.051" y="173.123" width="28.444" height="14.048" fill="none" stroke="#1d1d1b" stroke-miterlimit="10"/><rect x="476.496" y="173.123" width="28.444" height="14.048" fill="none" stroke="#1d1d1b" stroke-miterlimit="10"/><rect x="504.94" y="173.123" width="28.444" height="14.048" fill="none" stroke="#1d1d1b" stroke-miterlimit="10"/><rect x="277.384" y="187.171" width="28.444" height="14.048" fill="none" stroke="#1d1d1b" stroke-miterlimit="10"/><rect x="305.829" y="187.171" width="28.444" height="14.048" fill="none" stroke="#1d1d1b" stroke-miterlimit="10"/><rect x="334.273" y="187.171" width="28.444" height="14.048" fill="none" stroke="#1d1d1b" stroke-miterlimit="10"/><rect x="362.718" y="187.171" width="28.444" height="14.048" fill="none" stroke="#1d1d1b" stroke-miterlimit="10"/><rect x="391.162" y="187.171" width="28.444" height="14.048" fill="none" stroke="#1d1d1b" stroke-miterlimit="10"/><rect x="419.607" y="187.171" width="28.444" height="14.048" fill="none" stroke="#1d1d1b" stroke-miterlimit="10"/><rect x="448.051" y="187.171" width="28.444" height="14.048" fill="none" stroke="#1d1d1b" stroke-miterlimit="10"/><rect x="476.496" y="187.171" width="28.444" height="14.048" fill="none" stroke="#1d1d1b" stroke-miterlimit="10"/><rect x="504.94" y="187.171" width="28.444" height="14.048" fill="none" stroke="#1d1d1b" stroke-miterlimit="10"/><rect x="277.384" y="201.218" width="28.444" height="14.048" fill="none" stroke="#1d1d1b" stroke-miterlimit="10"/><rect x="305.829" y="201.218" width="28.444" height="14.048" fill="none" stroke="#1d1d1b" stroke-miterlimit="10"/><rect x="334.273" y="201.218" width="28.444" height="14.048" fill="none" stroke="#1d1d1b" stroke-miterlimit="10"/><rect x="362.718" y="201.218" width="28.444" height="14.048" fill="none" stroke="#1d1d1b" stroke-miterlimit="10"/><rect x="391.162" y="201.218" width="28.444" height="14.048" fill="none" stroke="#1d1d1b" stroke-miterlimit="10"/><rect x="419.607" y="201.218" width="28.444" height="14.048" fill="none" stroke="#1d1d1b" stroke-miterlimit="10"/><rect x="448.051" y="201.218" width="28.444" height="14.048" fill="none" stroke="#1d1d1b" stroke-miterlimit="10"/><rect x="476.496" y="201.218" width="28.444" height="14.048" fill="none" stroke="#1d1d1b" stroke-miterlimit="10"/><rect x="504.94" y="201.218" width="28.444" height="14.048" fill="none" stroke="#1d1d1b" stroke-miterlimit="10"/><rect x="277.384" y="215.266" width="28.444" height="14.048" fill="none" stroke="#1d1d1b" stroke-miterlimit="10"/><rect x="305.829" y="215.266" width="28.444" height="14.048" fill="none" stroke="#1d1d1b" stroke-miterlimit="10"/><rect x="334.273" y="215.266" width="28.444" height="14.048" fill="none" stroke="#1d1d1b" stroke-miterlimit="10"/><rect x="362.718" y="215.266" width="28.444" height="14.048" fill="none" stroke="#1d1d1b" stroke-miterlimit="10"/><rect x="391.162" y="215.266" width="28.444" height="14.048" fill="none" stroke="#1d1d1b" stroke-miterlimit="10"/><rect x="419.607" y="215.266" width="28.444" height="14.048" fill="none" stroke="#1d1d1b" stroke-miterlimit="10"/><rect x="448.051" y="215.266" width="28.444" height="14.048" fill="none" stroke="#1d1d1b" stroke-miterlimit="10"/><rect x="476.496" y="215.266" width="28.444" height="14.048" fill="none" stroke="#1d1d1b" stroke-miterlimit="10"/><rect x="504.94" y="215.266" width="28.444" height="14.048" fill="none" stroke="#1d1d1b" stroke-miterlimit="10"/><rect x="277.384" y="229.314" width="28.444" height="14.048" fill="none" stroke="#1d1d1b" stroke-miterlimit="10"/><rect x="305.829" y="229.314" width="28.444" height="14.048" fill="none" stroke="#1d1d1b" stroke-miterlimit="10"/><rect x="334.273" y="229.314" width="28.444" height="14.048" fill="none" stroke="#1d1d1b" stroke-miterlimit="10"/><rect x="362.718" y="229.314" width="28.444" height="14.048" fill="none" stroke="#1d1d1b" stroke-miterlimit="10"/><rect x="391.162" y="229.314" width="28.444" height="14.048" fill="none" stroke="#1d1d1b" stroke-miterlimit="10"/><rect x="419.607" y="229.314" width="28.444" height="14.048" fill="none" stroke="#1d1d1b" stroke-miterlimit="10"/><rect x="448.051" y="229.314" width="28.444" height="14.048" fill="none" stroke="#1d1d1b" stroke-miterlimit="10"/><rect x="476.496" y="229.314" width="28.444" height="14.048" fill="none" stroke="#1d1d1b" stroke-miterlimit="10"/><rect x="504.94" y="229.314" width="28.444" height="14.048" fill="none" stroke="#1d1d1b" stroke-miterlimit="10"/><rect x="277.384" y="243.361" width="28.444" height="14.048" fill="none" stroke="#1d1d1b" stroke-miterlimit="10"/><rect x="305.829" y="243.361" width="28.444" height="14.048" fill="none" stroke="#1d1d1b" stroke-miterlimit="10"/><rect x="334.273" y="243.361" width="28.444" height="14.048" fill="none" stroke="#1d1d1b" stroke-miterlimit="10"/><rect x="362.718" y="243.361" width="28.444" height="14.048" fill="none" stroke="#1d1d1b" stroke-miterlimit="10"/><rect x="391.162" y="243.361" width="28.444" height="14.048" fill="none" stroke="#1d1d1b" stroke-miterlimit="10"/><rect x="419.607" y="243.361" width="28.444" height="14.048" fill="none" stroke="#1d1d1b" stroke-miterlimit="10"/><rect x="448.051" y="243.361" width="28.444" height="14.048" fill="none" stroke="#1d1d1b" stroke-miterlimit="10"/><rect x="476.496" y="243.361" width="28.444" height="14.048" fill="none" stroke="#1d1d1b" stroke-miterlimit="10"/><rect x="504.94" y="243.361" width="28.444" height="14.048" fill="none" stroke="#1d1d1b" stroke-miterlimit="10"/><rect x="277.384" y="257.409" width="28.444" height="14.048" fill="none" stroke="#1d1d1b" stroke-miterlimit="10"/><rect x="305.829" y="257.409" width="28.444" height="14.048" fill="none" stroke="#1d1d1b" stroke-miterlimit="10"/><rect x="334.273" y="257.409" width="28.444" height="14.048" fill="none" stroke="#1d1d1b" stroke-miterlimit="10"/><rect x="362.718" y="257.409" width="28.444" height="14.048" fill="none" stroke="#1d1d1b" stroke-miterlimit="10"/><rect x="391.162" y="257.409" width="28.444" height="14.048" fill="none" stroke="#1d1d1b" stroke-miterlimit="10"/><rect x="419.607" y="257.409" width="28.444" height="14.048" fill="none" stroke="#1d1d1b" stroke-miterlimit="10"/><rect x="448.051" y="257.409" width="28.444" height="14.048" fill="none" stroke="#1d1d1b" stroke-miterlimit="10"/><rect x="476.496" y="257.409" width="28.444" height="14.048" fill="none" stroke="#1d1d1b" stroke-miterlimit="10"/><rect x="504.94" y="257.409" width="28.444" height="14.048" fill="none" stroke="#1d1d1b" stroke-miterlimit="10"/><rect x="277.384" y="271.456" width="28.444" height="14.048" fill="none" stroke="#1d1d1b" stroke-miterlimit="10"/><rect x="305.829" y="271.456" width="28.444" height="14.048" fill="none" stroke="#1d1d1b" stroke-miterlimit="10"/><rect x="334.273" y="271.456" width="28.444" height="14.048" fill="none" stroke="#1d1d1b" stroke-miterlimit="10"/><rect x="362.718" y="271.456" width="28.444" height="14.048" fill="none" stroke="#1d1d1b" stroke-miterlimit="10"/><rect x="391.162" y="271.456" width="28.444" height="14.048" fill="none" stroke="#1d1d1b" stroke-miterlimit="10"/><rect x="419.607" y="271.456" width="28.444" height="14.048" fill="none" stroke="#1d1d1b" stroke-miterlimit="10"/><rect x="448.051" y="271.456" width="28.444" height="14.048" fill="none" stroke="#1d1d1b" stroke-miterlimit="10"/><rect x="476.496" y="271.456" width="28.444" height="14.048" fill="none" stroke="#1d1d1b" stroke-miterlimit="10"/><rect x="504.94" y="271.456" width="28.444" height="14.048" fill="none" stroke="#1d1d1b" stroke-miterlimit="10"/><rect x="277.384" y="285.504" width="28.444" height="14.048" fill="none" stroke="#1d1d1b" stroke-miterlimit="10"/><rect x="305.829" y="285.504" width="28.444" height="14.048" fill="none" stroke="#1d1d1b" stroke-miterlimit="10"/><rect x="334.273" y="285.504" width="28.444" height="14.048" fill="none" stroke="#1d1d1b" stroke-miterlimit="10"/><rect x="362.718" y="285.504" width="28.444" height="14.048" fill="none" stroke="#1d1d1b" stroke-miterlimit="10"/><rect x="391.162" y="285.504" width="28.444" height="14.048" fill="none" stroke="#1d1d1b" stroke-miterlimit="10"/><rect x="419.607" y="285.504" width="28.444" height="14.048" fill="none" stroke="#1d1d1b" stroke-miterlimit="10"/><rect x="448.051" y="285.504" width="28.444" height="14.048" fill="none" stroke="#1d1d1b" stroke-miterlimit="10"/><rect x="476.496" y="285.504" width="28.444" height="14.048" fill="none" stroke="#1d1d1b" stroke-miterlimit="10"/><rect x="504.94" y="285.504" width="28.444" height="14.048" fill="none" stroke="#1d1d1b" stroke-miterlimit="10"/><rect x="21.384" y="18.6" width="28.444" height="14.048" fill="#f9b233" stroke="#1d1d1b" stroke-miterlimit="10"/><rect x="21.384" y="32.648" width="28.444" height="14.048" fill="#f9b233" stroke="#1d1d1b" stroke-miterlimit="10"/><rect x="21.384" y="46.695" width="28.444" height="14.048" fill="#f9b233" stroke="#1d1d1b" stroke-miterlimit="10"/><rect x="21.384" y="60.743" width="28.444" height="14.048" fill="#f9b233" stroke="#1d1d1b" stroke-miterlimit="10"/><rect x="21.384" y="74.79" width="28.444" height="14.048" fill="#f9b233" stroke="#1d1d1b" stroke-miterlimit="10"/><rect x="21.384" y="88.838" width="28.444" height="14.048" fill="#f9b233" stroke="#1d1d1b" stroke-miterlimit="10"/><rect x="21.384" y="102.885" width="28.444" height="14.048" fill="#f9b233" stroke="#1d1d1b" stroke-miterlimit="10"/><rect x="21.384" y="116.933" width="28.444" height="14.048" fill="#f9b233" stroke="#1d1d1b" stroke-miterlimit="10"/><rect x="21.384" y="130.981" width="28.444" height="14.048" fill="#f9b233" stroke="#1d1d1b" stroke-miterlimit="10"/><rect x="21.384" y="145.028" width="28.444" height="14.048" fill="#f9b233" stroke="#1d1d1b" stroke-miterlimit="10"/><rect x="21.384" y="159.076" width="28.444" height="14.048" fill="#f9b233" stroke="#1d1d1b" stroke-miterlimit="10"/><rect x="21.384" y="173.123" width="28.444" height="14.048" fill="#f9b233" stroke="#1d1d1b" stroke-miterlimit="10"/><rect x="21.384" y="187.171" width="28.444" height="14.048" fill="#f9b233" stroke="#1d1d1b" stroke-miterlimit="10"/><rect x="21.384" y="201.218" width="28.444" height="14.048" fill="#f9b233" stroke="#1d1d1b" stroke-miterlimit="10"/><rect x="21.384" y="215.266" width="28.444" height="14.048" fill="#f9b233" stroke="#1d1d1b" stroke-miterlimit="10"/><rect x="21.384" y="229.314" width="28.444" height="14.048" fill="#f9b233" stroke="#1d1d1b" stroke-miterlimit="10"/><rect x="21.384" y="243.361" width="28.444" height="14.048" fill="#f9b233" stroke="#1d1d1b" stroke-miterlimit="10"/><rect x="21.384" y="257.409" width="28.444" height="14.048" fill="#f9b233" stroke="#1d1d1b" stroke-miterlimit="10"/><rect x="21.384" y="271.456" width="28.444" height="14.048" fill="#f9b233" stroke="#1d1d1b" stroke-miterlimit="10"/><rect x="21.384" y="285.504" width="28.444" height="14.048" fill="#f9b233" stroke="#1d1d1b" stroke-miterlimit="10"/><rect x="21.578" y="18.406" width="512" height="280.952" fill="none" stroke="#1d1d1b" stroke-miterlimit="10"/><line x1="21.578" y1="158.882" x2="533.578" y2="158.882" fill="none" stroke="#1d1d1b" stroke-miterlimit="10"/><rect x="21.578" y="18.406" width="28.444" height="14.048" fill="#e9f1d8" stroke="#1d1d1b" stroke-miterlimit="10"/><rect x="21.578" y="32.454" width="28.444" height="14.048" fill="#e9f1d8" stroke="#1d1d1b" stroke-miterlimit="10"/><rect x="21.578" y="46.502" width="28.444" height="14.048" fill="#e9f1d8" stroke="#1d1d1b" stroke-miterlimit="10"/><rect x="21.578" y="60.549" width="28.444" height="14.048" fill="#e9f1d8" stroke="#1d1d1b" stroke-miterlimit="10"/><rect x="21.578" y="74.597" width="28.444" height="14.048" fill="#e9f1d8" stroke="#1d1d1b" stroke-miterlimit="10"/><rect x="21.578" y="88.644" width="28.444" height="14.048" fill="#e9f1d8" stroke="#1d1d1b" stroke-miterlimit="10"/><rect x="21.578" y="102.692" width="28.444" height="14.048" fill="#e9f1d8" stroke="#1d1d1b" stroke-miterlimit="10"/><rect x="21.578" y="116.739" width="28.444" height="14.048" fill="#e9f1d8" stroke="#1d1d1b" stroke-miterlimit="10"/><rect x="21.578" y="130.787" width="28.444" height="14.048" fill="#e9f1d8" stroke="#1d1d1b" stroke-miterlimit="10"/><rect x="21.578" y="144.835" width="28.444" height="14.048" fill="#e9f1d8" stroke="#1d1d1b" stroke-miterlimit="10"/><rect x="21.578" y="158.882" width="28.444" height="14.048" fill="#e9f1d8" stroke="#1d1d1b" stroke-miterlimit="10"/><rect x="21.578" y="172.93" width="28.444" height="14.048" fill="#e9f1d8" stroke="#1d1d1b" stroke-miterlimit="10"/><rect x="21.578" y="186.977" width="28.444" height="14.048" fill="#e9f1d8" stroke="#1d1d1b" stroke-miterlimit="10"/><rect x="21.578" y="201.025" width="28.444" height="14.048" fill="#e9f1d8" stroke="#1d1d1b" stroke-miterlimit="10"/><rect x="21.578" y="215.073" width="28.444" height="14.048" fill="#e9f1d8" stroke="#1d1d1b" stroke-miterlimit="10"/><rect x="21.578" y="229.12" width="28.444" height="14.048" fill="#e9f1d8" stroke="#1d1d1b" stroke-miterlimit="10"/><rect x="21.578" y="243.168" width="28.444" height="14.048" fill="#e9f1d8" stroke="#1d1d1b" stroke-miterlimit="10"/><rect x="21.578" y="257.215" width="28.444" height="14.048" fill="#e9f1d8" stroke="#1d1d1b" stroke-miterlimit="10"/><rect x="21.578" y="271.263" width="28.444" height="14.048" fill="#e9f1d8" stroke="#1d1d1b" stroke-miterlimit="10"/><rect x="21.578" y="285.31" width="28.444" height="14.048" fill="#e9f1d8" stroke="#1d1d1b" stroke-miterlimit="10"/><rect x="504.94" y="18.406" width="28.444" height="14.048" fill="#e9f1d8" stroke="#1d1d1b" stroke-miterlimit="10"/><rect x="504.94" y="32.454" width="28.444" height="14.048" fill="#e9f1d8" stroke="#1d1d1b" stroke-miterlimit="10"/><rect x="504.94" y="46.502" width="28.444" height="14.048" fill="#e9f1d8" stroke="#1d1d1b" stroke-miterlimit="10"/><rect x="504.94" y="60.549" width="28.444" height="14.048" fill="#e9f1d8" stroke="#1d1d1b" stroke-miterlimit="10"/><rect x="504.94" y="74.597" width="28.444" height="14.048" fill="#e9f1d8" stroke="#1d1d1b" stroke-miterlimit="10"/><rect x="504.94" y="88.644" width="28.444" height="14.048" fill="#e9f1d8" stroke="#1d1d1b" stroke-miterlimit="10"/><rect x="504.94" y="102.692" width="28.444" height="14.048" fill="#e9f1d8" stroke="#1d1d1b" stroke-miterlimit="10"/><rect x="504.94" y="116.739" width="28.444" height="14.048" fill="#e9f1d8" stroke="#1d1d1b" stroke-miterlimit="10"/><rect x="504.94" y="130.787" width="28.444" height="14.048" fill="#e9f1d8" stroke="#1d1d1b" stroke-miterlimit="10"/><rect x="504.94" y="144.835" width="28.444" height="14.048" fill="#e9f1d8" stroke="#1d1d1b" stroke-miterlimit="10"/><rect x="504.94" y="158.882" width="28.444" height="14.048" fill="#e9f1d8" stroke="#1d1d1b" stroke-miterlimit="10"/><rect x="504.94" y="172.93" width="28.444" height="14.048" fill="#e9f1d8" stroke="#1d1d1b" stroke-miterlimit="10"/><rect x="504.94" y="186.977" width="28.444" height="14.048" fill="#e9f1d8" stroke="#1d1d1b" stroke-miterlimit="10"/><rect x="504.94" y="201.025" width="28.444" height="14.048" fill="#e9f1d8" stroke="#1d1d1b" stroke-miterlimit="10"/><rect x="504.94" y="215.073" width="28.444" height="14.048" fill="#e9f1d8" stroke="#1d1d1b" stroke-miterlimit="10"/><rect x="504.94" y="229.12" width="28.444" height="14.048" fill="#e9f1d8" stroke="#1d1d1b" stroke-miterlimit="10"/><rect x="504.94" y="243.168" width="28.444" height="14.048" fill="#e9f1d8" stroke="#1d1d1b" stroke-miterlimit="10"/><rect x="504.94" y="257.215" width="28.444" height="14.048" fill="#e9f1d8" stroke="#1d1d1b" stroke-miterlimit="10"/><rect x="504.94" y="271.263" width="28.444" height="14.048" fill="#e9f1d8" stroke="#1d1d1b" stroke-miterlimit="10"/><rect x="504.94" y="285.31" width="28.444" height="14.048" fill="#e9f1d8" stroke="#1d1d1b" stroke-miterlimit="10"/><rect x="49.829" y="18.6" width="28.444" height="14.048" fill="#f6c1a8" stroke="#1d1d1b" stroke-miterlimit="10"/><rect x="78.273" y="257.409" width="28.444" height="14.048" fill="#f6c1a8" stroke="#1d1d1b" stroke-miterlimit="10"/><rect x="135.162" y="130.981" width="28.444" height="14.048" fill="#f6c1a8" stroke="#1d1d1b" stroke-miterlimit="10"/><rect x="220.496" y="88.838" width="28.444" height="14.048" fill="#f6c1a8" stroke="#1d1d1b" stroke-miterlimit="10"/><rect x="305.829" y="173.123" width="28.444" height="14.048" fill="#f6c1a8" stroke="#1d1d1b" stroke-miterlimit="10"/><rect x="362.718" y="257.409" width="28.444" height="14.048" fill="#f6c1a8" stroke="#1d1d1b" stroke-miterlimit="10"/><rect x="476.496" y="32.648" width="28.444" height="14.048" fill="#f6c1a8" stroke="#1d1d1b" stroke-miterlimit="10"/><rect x="106.718" y="60.743" width="28.444" height="14.048" fill="#cfe3f6" stroke="#1d1d1b" stroke-miterlimit="10"/><rect x="277.384" y="32.648" width="28.444" height="14.048" fill="#cfe3f6" stroke="#1d1d1b" stroke-miterlimit="10"/><rect x="419.607" y="46.695" width="28.444" height="14.048" fill="#cfe3f6" stroke="#1d1d1b" stroke-miterlimit="10"/><rect x="334.273" y="130.981" width="28.444" height="14.048" fill="#cfe3f6" stroke="#1d1d1b" stroke-miterlimit="10"/><rect x="135.162" y="271.456" width="28.444" height="14.048" fill="#cfe3f6" stroke="#1d1d1b" stroke-miterlimit="10"/><rect x="277.384" y="243.361" width="28.444" height="14.048" fill="#cfe3f6" stroke="#1d1d1b" stroke-miterlimit="10"/><rect x="448.051" y="285.504" width="28.444" height="14.048" fill="#cfe3f6" stroke="#1d1d1b" stroke-miterlimit="10"/><rect x="419.607" y="187.171" width="28.444" height="14.048" fill="#ddd2e9" stroke="#1d1d1b" stroke-miterlimit="10"/><rect x="362.718" y="102.692" width="28.444" height="14.048" fill="#ddd2e9" stroke="#1d1d1b" stroke-miterlimit="10"/><rect x="220.496" y="187.171" width="28.444" height="14.048" fill="#ddd2e9" stroke="#1d1d1b" stroke-miterlimit="10"/><rect x="49.829" y="173.123" width="28.444" height="14.048" fill="#ddd2e9" stroke="#1d1d1b" stroke-miterlimit="10"/><rect x="78.467" y="102.885" width="28.444" height="14.048" fill="#ddd2e9" stroke="#1d1d1b" stroke-miterlimit="10"/><rect x="163.607" y="46.695" width="28.444" height="14.048" fill="#ddd2e9" stroke="#1d1d1b" stroke-miterlimit="10"/><rect x="220.496" y="285.31" width="28.444" height="14.048" fill="#ddd2e9" stroke="#1d1d1b" stroke-miterlimit="10"/><rect x="23.413" y="0" width="24.774" height="16.258" fill="none"/><path d="M37.166,4.018v8.396h-1.703v-5.445h-2.111v-1.284h.12c1.367,0,2.171-.576,2.339-1.667h1.355Z" fill="#1d1d1b"/><rect x="51.858" y="0" width="24.774" height="16.258" fill="none"/><path d="M67.278,6.477c0,.563-.132,1.031-.384,1.439-.312.492-.732.875-1.619,1.439-1.176.743-1.596,1.139-1.919,1.595h3.97v1.463h-6.165c0-1.115.384-1.895,1.115-2.59.456-.432.948-.768,2.123-1.56.66-.443,1.176-.923,1.176-1.655,0-.756-.48-1.295-1.26-1.295-.84,0-1.319.744-1.331,1.931h-1.631v-.156c0-1.943,1.175-3.238,3.046-3.238,1.547,0,2.879.996,2.879,2.627Z" fill="#1d1d1b"/><rect x="80.108" y="0" width="24.774" height="16.258" fill="none"/><path d="M95.3,6.176c0,.828-.42,1.5-1.175,1.715v.024c.936.204,1.487.972,1.487,1.907,0,1.739-1.463,2.758-3.119,2.758-1.907,0-3.118-1.151-3.118-2.962v-.096h1.619c.048,1.056.6,1.655,1.475,1.655.792,0,1.367-.54,1.367-1.319,0-.971-.624-1.247-1.679-1.247h-.264v-1.2h.312c.959,0,1.475-.384,1.475-1.043,0-.708-.552-1.116-1.188-1.116s-1.295.372-1.295,1.5h-1.619c.06-1.763,1.199-2.903,2.902-2.903,1.343,0,2.818.828,2.818,2.327Z" fill="#1d1d1b"/><rect x="108.553" y="0" width="24.774" height="16.258" fill="none"/><path d="M122.965,4.018v5.049h1.116v1.403h-1.116v1.943h-1.619v-1.943h-3.55v-1.559l3.646-4.894h1.523ZM121.31,6.152l-2.171,2.915h2.207v-2.915h-.036Z" fill="#1d1d1b"/><rect x="136.997" y="0" width="24.774" height="16.258" fill="none"/><path d="M152.045,4.018v1.403h-3.466l-.336,1.907.024.024c.42-.42.912-.648,1.643-.648,1.667,0,2.591,1.295,2.591,2.854,0,1.667-1.343,3.022-3.083,3.022-1.787,0-3.106-.972-3.154-2.663h1.703c.084.768.636,1.259,1.379,1.259.863,0,1.451-.744,1.451-1.619,0-.839-.504-1.571-1.463-1.571-.6,0-.947.216-1.271.672h-1.535l.827-4.642h4.689Z" fill="#1d1d1b"/><rect x="165.442" y="0" width="24.774" height="16.258" fill="none"/><path d="M180.765,6.176h-1.619c-.132-.635-.587-1.043-1.127-1.043-1.043,0-1.535,1.211-1.607,2.554l.024.024c.468-.659,1.056-.935,1.883-.935,1.295,0,2.591.959,2.591,2.734,0,1.727-1.199,3.07-2.938,3.07-2.291,0-3.226-1.823-3.226-4.342,0-1.967.852-4.39,3.298-4.39,1.475,0,2.53.864,2.722,2.327ZM177.923,11.178c.792,0,1.283-.744,1.283-1.535,0-.78-.396-1.583-1.295-1.583-.815,0-1.343.636-1.343,1.559,0,.828.528,1.559,1.355,1.559Z" fill="#1d1d1b"/><rect x="193.693" y="0" width="24.774" height="16.258" fill="none"/><path d="M208.945,4.018v1.463c-1.751,1.559-2.699,4.605-2.747,6.932h-1.823c.191-2.482,1.223-4.893,2.818-6.812h-3.982v-1.583h5.733Z" fill="#1d1d1b"/><rect x="222.137" y="0" width="24.774" height="16.258" fill="none"/><path d="M237.341,6.117c0,.815-.42,1.475-1.224,1.751v.024c1.043.252,1.571,1.02,1.571,2.051,0,1.751-1.535,2.639-3.143,2.639-1.595,0-3.19-.804-3.19-2.626,0-1.056.576-1.823,1.583-2.063v-.024c-.792-.216-1.235-.875-1.235-1.727,0-1.5,1.451-2.291,2.831-2.291,2.051,0,2.807,1.392,2.807,2.267ZM234.546,11.298c.828,0,1.439-.588,1.439-1.416,0-.768-.6-1.343-1.451-1.343-.839,0-1.475.492-1.475,1.332,0,.852.647,1.427,1.487,1.427ZM234.534,7.4c.72,0,1.259-.396,1.259-1.104,0-.456-.216-1.163-1.271-1.163-.647,0-1.271.396-1.271,1.163,0,.72.6,1.104,1.283,1.104Z" fill="#1d1d1b"/><rect x="250.582" width="24.774" height="16.258" fill="none"/><path d="M266.049,8.179c0,2.075-.912,4.402-3.298,4.402-1.463,0-2.53-.852-2.722-2.327h1.619c.12.611.575,1.043,1.127,1.043.912,0,1.487-.888,1.607-2.555l-.024-.024c-.444.636-1.032.936-1.895.936-1.104,0-2.579-.804-2.579-2.735,0-1.667,1.127-3.07,2.95-3.07,2.231,0,3.214,1.763,3.214,4.33ZM262.871,8.371c.899,0,1.355-.708,1.355-1.559,0-.827-.527-1.559-1.355-1.559-.804,0-1.283.756-1.283,1.535,0,.792.408,1.583,1.283,1.583Z" fill="#1d1d1b"/><rect x="279.026" y="0" width="24.774" height="16.258" fill="none"/><path d="M289.443,4.018v8.396h-1.703v-5.445h-2.11v-1.284h.119c1.367,0,2.171-.576,2.339-1.667h1.355Z" fill="#1d1d1b"/><path d="M297.829,8.179c0,2.891-1.079,4.402-3.094,4.402-2.003,0-3.07-1.499-3.07-4.402,0-2.83,1.055-4.33,3.07-4.33,2.003,0,3.094,1.487,3.094,4.33ZM294.736,11.178c1.354,0,1.391-1.919,1.391-3.046,0-1.175-.107-2.878-1.403-2.878-1.354,0-1.354,2.027-1.354,2.878,0,1.043.012,3.046,1.367,3.046Z" fill="#1d1d1b"/><rect x="307.277" y="0" width="24.774" height="16.258" fill="none"/><path d="M317.694,4.018v8.396h-1.703v-5.445h-2.11v-1.284h.119c1.367,0,2.171-.576,2.339-1.667h1.355Z" fill="#1d1d1b"/><path d="M324.366,4.018v8.396h-1.703v-5.445h-2.11v-1.284h.119c1.367,0,2.171-.576,2.339-1.667h1.355Z" fill="#1d1d1b"/><rect x="335.721" y="0" width="24.774" height="16.258" fill="none"/><path d="M346.138,4.018v8.396h-1.703v-5.445h-2.11v-1.284h.119c1.367,0,2.171-.576,2.339-1.667h1.355Z" fill="#1d1d1b"/><path d="M354.477,6.477c0,.563-.132,1.031-.384,1.439-.312.492-.731.875-1.619,1.439-1.175.743-1.595,1.139-1.919,1.595h3.97v1.463h-6.164c0-1.115.384-1.895,1.115-2.59.455-.432.947-.768,2.123-1.56.659-.443,1.175-.923,1.175-1.655,0-.756-.479-1.295-1.259-1.295-.84,0-1.319.744-1.332,1.931h-1.631v-.156c0-1.943,1.176-3.238,3.047-3.238,1.547,0,2.878.996,2.878,2.627Z" fill="#1d1d1b"/><rect x="364.166" y="0" width="24.774" height="16.258" fill="none"/><path d="M374.582,4.018v8.396h-1.703v-5.445h-2.11v-1.284h.119c1.367,0,2.171-.576,2.339-1.667h1.355Z" fill="#1d1d1b"/><path d="M382.694,6.176c0,.828-.42,1.5-1.176,1.715v.024c.936.204,1.487.972,1.487,1.907,0,1.739-1.463,2.758-3.118,2.758-1.907,0-3.118-1.151-3.118-2.962v-.096h1.619c.048,1.056.6,1.655,1.475,1.655.792,0,1.367-.54,1.367-1.319,0-.971-.623-1.247-1.679-1.247h-.264v-1.2h.312c.96,0,1.476-.384,1.476-1.043,0-.708-.552-1.116-1.188-1.116s-1.295.372-1.295,1.5h-1.619c.06-1.763,1.199-2.903,2.902-2.903,1.343,0,2.818.828,2.818,2.327Z" fill="#1d1d1b"/><rect x="392.61" y="0" width="24.774" height="16.258" fill="none"/><path d="M403.028,4.018v8.396h-1.703v-5.445h-2.111v-1.284h.119c1.367,0,2.172-.576,2.34-1.667h1.355Z" fill="#1d1d1b"/><path d="M410.358,4.018v5.049h1.116v1.403h-1.116v1.943h-1.619v-1.943h-3.549v-1.559l3.646-4.894h1.522ZM408.703,6.152l-2.171,2.915h2.206v-2.915h-.035Z" fill="#1d1d1b"/><rect x="420.861" y="0" width="24.774" height="16.258" fill="none"/><path d="M431.278,4.018v8.396h-1.703v-5.445h-2.11v-1.284h.119c1.367,0,2.171-.576,2.339-1.667h1.355Z" fill="#1d1d1b"/><path d="M439.244,4.018v1.403h-3.466l-.336,1.907.024.024c.42-.42.911-.648,1.643-.648,1.667,0,2.591,1.295,2.591,2.854,0,1.667-1.343,3.022-3.082,3.022-1.787,0-3.106-.972-3.154-2.663h1.703c.084.768.636,1.259,1.379,1.259.863,0,1.451-.744,1.451-1.619,0-.839-.504-1.571-1.463-1.571-.6,0-.947.216-1.271.672h-1.535l.827-4.642h4.689Z" fill="#1d1d1b"/><rect x="449.306" y="0" width="24.774" height="16.258" fill="none"/><path d="M459.723,4.018v8.396h-1.703v-5.445h-2.111v-1.284h.12c1.367,0,2.171-.576,2.339-1.667h1.355Z" fill="#1d1d1b"/><path d="M467.965,6.176h-1.619c-.132-.635-.587-1.043-1.127-1.043-1.044,0-1.535,1.211-1.607,2.554l.024.024c.468-.659,1.056-.935,1.883-.935,1.295,0,2.591.959,2.591,2.734,0,1.727-1.199,3.07-2.938,3.07-2.291,0-3.227-1.823-3.227-4.342,0-1.967.852-4.39,3.299-4.39,1.475,0,2.53.864,2.722,2.327ZM465.123,11.178c.791,0,1.283-.744,1.283-1.535,0-.78-.396-1.583-1.296-1.583-.815,0-1.343.636-1.343,1.559,0,.828.527,1.559,1.355,1.559Z" fill="#1d1d1b"/><rect x="477.75" y="0" width="24.774" height="16.258" fill="none"/><path d="M488.167,4.018v8.396h-1.703v-5.445h-2.111v-1.284h.12c1.367,0,2.171-.576,2.339-1.667h1.355Z" fill="#1d1d1b"/><path d="M496.338,4.018v1.463c-1.751,1.559-2.699,4.605-2.747,6.932h-1.822c.191-2.482,1.223-4.893,2.818-6.812h-3.982v-1.583h5.733Z" fill="#1d1d1b"/><rect x="506.194" y="0" width="24.774" height="16.258" fill="none"/><path d="M516.612,4.018v8.396h-1.703v-5.445h-2.111v-1.284h.12c1.367,0,2.171-.576,2.339-1.667h1.355Z" fill="#1d1d1b"/><path d="M524.735,6.117c0,.815-.42,1.475-1.224,1.751v.024c1.043.252,1.571,1.02,1.571,2.051,0,1.751-1.535,2.639-3.143,2.639-1.595,0-3.19-.804-3.19-2.626,0-1.056.576-1.823,1.583-2.063v-.024c-.791-.216-1.235-.875-1.235-1.727,0-1.5,1.451-2.291,2.831-2.291,2.051,0,2.807,1.392,2.807,2.267ZM521.94,11.298c.827,0,1.439-.588,1.439-1.416,0-.768-.6-1.343-1.451-1.343-.84,0-1.476.492-1.476,1.332,0,.852.647,1.427,1.487,1.427ZM521.928,7.4c.72,0,1.259-.396,1.259-1.104,0-.456-.216-1.163-1.271-1.163-.647,0-1.271.396-1.271,1.163,0,.72.6,1.104,1.283,1.104Z" fill="#1d1d1b"/><rect x="544.743" y="60.743" width="28.444" height="14.048" fill="#e9f1d8" stroke="#1d1d1b" stroke-miterlimit="10"/><rect x="544.743" y="88.644" width="28.444" height="14.048" fill="#f6c1a8" stroke="#1d1d1b" stroke-miterlimit="10"/><rect x="544.743" y="116.933" width="28.444" height="14.048" fill="#cfe3f6" stroke="#1d1d1b" stroke-miterlimit="10"/><rect x="544.743" y="32.648" width="28.444" height="14.048" fill="#fff" stroke="#1d1d1b" stroke-miterlimit="10"/><rect x="579.384" y="31.349" width="107.226" height="16.258" fill="none"/><path d="M583.33,35.198c2.578,0,4.042,1.392,4.042,4.078,0,3.022-1.428,4.485-4.042,4.485h-3.011v-8.563h3.011ZM583.39,42.802c1.703,0,2.843-1.104,2.843-3.37s-.947-3.274-2.795-3.274h-1.979v6.645h1.931Z" fill="#1d1d1b"/><path d="M591.825,37.417v1.08c-1.522,0-2.242.792-2.242,2.495v2.771h-1.02v-6.201h.959v1.308h.024c.479-.984,1.163-1.452,2.135-1.452h.144Z" fill="#1d1d1b"/><path d="M593.616,37.561v4.222c0,.72.479,1.224,1.259,1.224,1.188,0,1.835-.78,1.835-1.907v-3.538h1.02v6.201h-.959v-.983h-.024c-.443.792-1.151,1.127-2.015,1.127-1.451,0-2.135-.756-2.135-2.207v-4.138h1.02Z" fill="#1d1d1b"/><path d="M603.645,38.449h.013v-.888h.959v5.733c0,1.955-.923,2.986-2.866,2.986-1.403,0-2.519-.624-2.579-1.823h1.02c.036.647.816,1.007,1.607,1.007,1.199,0,1.859-.804,1.859-2.375v-.384h-.024c-.312.684-1.067,1.127-1.931,1.127-1.68,0-2.771-1.271-2.771-3.142,0-1.883,1.031-3.274,2.854-3.274.875,0,1.511.408,1.858,1.032ZM601.762,42.934c1.128,0,1.848-.959,1.848-2.398,0-1.308-.636-2.219-1.775-2.219s-1.823.899-1.823,2.254c0,1.451.636,2.363,1.751,2.363Z" fill="#1d1d1b"/><path d="M610.907,35.702v1.859h1.235v.899h-1.235v3.886c0,.312.096.468.312.492.204.012.42.024.636.024h.288v.899h-.84c-1.127,0-1.415-.36-1.415-1.295v-4.006h-1.056v-.899h1.056v-1.859h1.02Z" fill="#1d1d1b"/><path d="M616.497,37.417v1.08c-1.523,0-2.243.792-2.243,2.495v2.771h-1.02v-6.201h.96v1.308h.023c.48-.984,1.164-1.452,2.136-1.452h.144Z" fill="#1d1d1b"/><path d="M621.704,38.377c.492.636.732,1.463.732,2.471v.12h-4.642v.072c0,1.188.731,1.967,1.931,1.967.911,0,1.439-.444,1.607-1.211h1.007c-.275,1.379-1.247,2.111-2.65,2.111-.647,0-1.199-.144-1.643-.432-.912-.6-1.332-1.775-1.332-2.854,0-.912.265-1.667.815-2.279.552-.612,1.26-.924,2.1-.924.888,0,1.583.324,2.074.959ZM621.357,40.068c-.06-.996-.791-1.751-1.799-1.751-.959,0-1.679.695-1.763,1.751h3.562Z" fill="#1d1d1b"/><path d="M628.353,39.085v3.574c0,.228.107.348.323.348.096,0,.216-.024.312-.06v.792c-.192.108-.444.168-.732.168-.552,0-.863-.312-.863-.959-.54.636-1.271.959-2.183.959-1.271,0-2.051-.624-2.051-1.739,0-.552.18-.995.54-1.319.348-.335,1.175-.576,2.506-.744.899-.108,1.14-.324,1.14-.768,0-.684-.42-1.019-1.379-1.019-1.008,0-1.499.372-1.548,1.175h-1.02c.072-1.379,1.008-2.075,2.639-2.075,1.751,0,2.315.696,2.315,1.667ZM625.438,43.006c1.188,0,1.896-.696,1.896-1.379v-1.067c-.168.12-.444.216-.72.252l-1.044.156c-.899.132-1.331.479-1.331,1.127,0,.576.444.912,1.199.912Z" fill="#1d1d1b"/><path d="M631.354,35.702v1.859h1.235v.899h-1.235v3.886c0,.312.097.468.312.492.204.012.42.024.636.024h.287v.899h-.839c-1.128,0-1.415-.36-1.415-1.295v-4.006h-1.056v-.899h1.056v-1.859h1.019Z" fill="#1d1d1b"/><path d="M638.408,38.473c.42-.66,1.127-1.056,1.955-1.056,1.391,0,2.051.684,2.051,1.763v4.582h-1.02v-4.114c0-.888-.36-1.331-1.199-1.331-1.02,0-1.619.684-1.619,1.547v3.898h-1.02v-4.114c0-.888-.36-1.331-1.164-1.331-.323,0-.611.084-.863.24-.491.312-.791.959-.791,1.319v3.886h-1.02v-6.201h.959v.912h.024c.468-.708,1.127-1.056,2.003-1.056.911,0,1.487.384,1.703,1.056Z" fill="#1d1d1b"/><path d="M648.608,38.377c.492.636.732,1.463.732,2.471v.12h-4.642v.072c0,1.188.731,1.967,1.931,1.967.911,0,1.439-.444,1.607-1.211h1.007c-.275,1.379-1.247,2.111-2.65,2.111-.647,0-1.199-.144-1.643-.432-.912-.6-1.332-1.775-1.332-2.854,0-.912.265-1.667.815-2.279.552-.612,1.26-.924,2.1-.924.888,0,1.583.324,2.074.959ZM648.26,40.068c-.06-.996-.791-1.751-1.799-1.751-.959,0-1.679.695-1.763,1.751h3.562Z" fill="#1d1d1b"/><path d="M655.532,39.636v4.125h-1.02v-4.234c0-.684-.443-1.211-1.271-1.211-1.163,0-1.822.779-1.822,1.907v3.538h-1.02v-6.201h.959v.983h.024c.455-.779,1.104-1.127,2.015-1.127,1.499,0,2.135.792,2.135,2.219Z" fill="#1d1d1b"/><path d="M658.486,35.702v1.859h1.235v.899h-1.235v3.886c0,.312.096.468.312.492.204.012.42.024.636.024h.288v.899h-.84c-1.127,0-1.415-.36-1.415-1.295v-4.006h-1.056v-.899h1.056v-1.859h1.02Z" fill="#1d1d1b"/><rect x="579.384" y="59.444" width="82.065" height="16.258" fill="none"/><path d="M586.233,63.293v.959h-4.773v2.723h4.449v.959h-4.449v2.962h4.81v.959h-5.949v-8.563h5.913Z" fill="#1d1d1b"/><path d="M592.173,66.567c.42-.66,1.128-1.056,1.955-1.056,1.392,0,2.051.684,2.051,1.763v4.582h-1.02v-4.114c0-.888-.359-1.331-1.199-1.331-1.02,0-1.619.684-1.619,1.547v3.898h-1.02v-4.114c0-.888-.359-1.331-1.163-1.331-.324,0-.611.084-.863.24-.492.312-.792.959-.792,1.319v3.886h-1.02v-6.201h.96v.912h.023c.468-.708,1.128-1.056,2.003-1.056.912,0,1.487.384,1.703,1.056Z" fill="#1d1d1b"/><path d="M603.632,68.774c0,1.895-1.079,3.227-2.83,3.227-.768,0-1.571-.312-2.003-.972h-.024v3.202h-1.019v-8.575h1.019v.84h.024c.324-.636,1.031-.984,1.979-.984,1.8,0,2.854,1.355,2.854,3.262ZM600.694,71.101c1.176,0,1.859-.888,1.859-2.399,0-1.307-.72-2.291-1.931-2.291-1.224,0-1.883.983-1.883,2.338,0,1.427.72,2.351,1.954,2.351Z" fill="#1d1d1b"/><path d="M606.25,63.797v1.859h1.235v.899h-1.235v3.886c0,.312.097.468.312.492.204.012.42.024.636.024h.287v.899h-.839c-1.128,0-1.415-.36-1.415-1.295v-4.006h-1.056v-.899h1.056v-1.859h1.019Z" fill="#1d1d1b"/><path d="M609.095,65.656l1.811,5.073h.024l1.739-5.073h1.079l-2.639,6.86c-.539,1.439-.947,1.823-1.858,1.823-.252,0-.48-.024-.708-.108v-.935c.192.06.396.144.6.144.42,0,.708-.204.863-.624l.396-.996-2.459-6.165h1.151Z" fill="#1d1d1b"/><path d="M623.216,67.647h-1.056c-.167-.804-.719-1.235-1.535-1.235-1.259,0-1.931.887-1.931,2.422,0,1.355.684,2.267,1.812,2.267.983,0,1.57-.564,1.703-1.511h1.043c-.228,1.547-1.188,2.411-2.734,2.411-1.812,0-2.902-1.224-2.902-3.167,0-2.015,1.104-3.322,2.926-3.322,1.5,0,2.507.72,2.675,2.135Z" fill="#1d1d1b"/><path d="M629.048,66.471c.492.636.732,1.463.732,2.471v.12h-4.642v.072c0,1.188.731,1.967,1.931,1.967.911,0,1.439-.444,1.607-1.211h1.007c-.275,1.379-1.247,2.111-2.65,2.111-.647,0-1.199-.144-1.643-.432-.912-.6-1.332-1.775-1.332-2.854,0-.912.265-1.667.815-2.279.552-.612,1.26-.924,2.1-.924.888,0,1.583.324,2.074.959ZM628.7,68.163c-.06-.996-.791-1.751-1.799-1.751-.959,0-1.679.695-1.763,1.751h3.562Z" fill="#1d1d1b"/><path d="M631.918,63.293v8.563h-1.02v-8.563h1.02Z" fill="#1d1d1b"/><path d="M634.582,63.293v8.563h-1.02v-8.563h1.02Z" fill="#1d1d1b"/><path d="M640.76,67.455h-1.02v-.012c-.06-.66-.624-1.031-1.439-1.031s-1.319.288-1.319.792c0,.456.42.72,1.26.911l.959.216c1.2.264,1.835.779,1.835,1.715,0,1.223-1.019,1.955-2.638,1.955-1.571,0-2.567-.708-2.627-2.099h1.02c.023.768.636,1.2,1.667,1.2.983,0,1.499-.312,1.499-.924,0-.276-.132-.503-.384-.66-.252-.156-.768-.312-1.547-.479-1.596-.336-2.123-.84-2.123-1.763,0-1.091.972-1.763,2.327-1.763,1.667,0,2.446.648,2.53,1.943Z" fill="#1d1d1b"/><rect x="579.384" y="87.539" width="82.065" height="16.258" fill="none"/><path d="M584.134,91.388c1.547,0,2.566.852,2.566,2.531,0,1.703-1.044,2.531-2.495,2.531h-2.746v3.502h-1.14v-8.563h3.814ZM583.81,95.49c1.079,0,1.751-.504,1.751-1.571,0-1.055-.624-1.571-1.823-1.571h-2.278v3.143h2.351Z" fill="#1d1d1b"/><path d="M593.613,96.858c0,1.919-1.188,3.238-3.011,3.238-1.799,0-3.01-1.259-3.01-3.238s1.151-3.25,3.01-3.25c1.907,0,3.011,1.355,3.011,3.25ZM590.602,99.196c1.116,0,1.932-.936,1.932-2.339s-.815-2.351-1.943-2.351c-1.079,0-1.919.911-1.919,2.351,0,1.403.804,2.339,1.931,2.339Z" fill="#1d1d1b"/><path d="M599.408,95.55h-1.019v-.012c-.061-.66-.624-1.031-1.439-1.031s-1.319.288-1.319.792c0,.456.42.72,1.259.911l.96.216c1.199.264,1.835.779,1.835,1.715,0,1.223-1.02,1.955-2.639,1.955-1.571,0-2.566-.708-2.627-2.099h1.02c.024.768.636,1.2,1.667,1.2.984,0,1.5-.312,1.5-.924,0-.276-.132-.503-.384-.66-.252-.156-.768-.312-1.548-.479-1.595-.336-2.122-.84-2.122-1.763,0-1.091.971-1.763,2.326-1.763,1.667,0,2.446.648,2.53,1.943Z" fill="#1d1d1b"/><path d="M601.895,91.388v1.248h-1.02v-1.248h1.02ZM601.895,93.751v6.201h-1.02v-6.201h1.02Z" fill="#1d1d1b"/><path d="M604.894,91.892v1.859h1.235v.899h-1.235v3.886c0,.312.097.468.312.492.204.012.42.024.636.024h.287v.899h-.839c-1.128,0-1.415-.36-1.415-1.295v-4.006h-1.056v-.899h1.056v-1.859h1.019Z" fill="#1d1d1b"/><path d="M608.338,91.388v1.248h-1.02v-1.248h1.02ZM608.338,93.751v6.201h-1.02v-6.201h1.02Z" fill="#1d1d1b"/><path d="M610.462,93.751l1.739,5.169h.023l1.691-5.169h1.067l-2.267,6.201h-1.092l-2.303-6.201h1.14Z" fill="#1d1d1b"/><path d="M620.575,94.567c.492.636.732,1.463.732,2.471v.12h-4.642v.072c0,1.188.731,1.967,1.931,1.967.911,0,1.439-.444,1.607-1.211h1.007c-.275,1.379-1.247,2.111-2.65,2.111-.647,0-1.199-.144-1.643-.432-.912-.6-1.332-1.775-1.332-2.854,0-.912.265-1.667.815-2.279.552-.612,1.26-.924,2.1-.924.888,0,1.583.324,2.074.959ZM620.228,96.258c-.06-.996-.791-1.751-1.799-1.751-.959,0-1.679.695-1.763,1.751h3.562Z" fill="#1d1d1b"/><path d="M628.16,91.185c-1.079,1.703-1.583,3.418-1.583,5.529,0,2.159.492,3.862,1.583,5.613h-.779c-1.379-2.159-1.883-3.778-1.883-5.613,0-1.871.672-3.898,1.883-5.529h.779Z" fill="#1d1d1b"/><path d="M632.636,91.388c1.056,0,1.775.216,2.146.648.384.419.576.912.576,1.451,0,.912-.468,1.595-1.271,1.919v.024c1.056.228,1.631,1.02,1.631,2.063,0,1.379-1.091,2.458-2.555,2.458h-4.186v-8.563h3.658ZM632.456,95.07c1.139,0,1.763-.396,1.763-1.367,0-.899-.42-1.355-1.751-1.355h-2.351v2.723h2.339ZM633.02,98.992c.924,0,1.56-.588,1.56-1.535,0-.959-.685-1.427-1.907-1.427h-2.555v2.962h2.902Z" fill="#1d1d1b"/><path d="M641.587,93.751v.696l-3.79,4.605h3.958v.899h-5.229v-.78l3.742-4.521h-3.502v-.899h4.821Z" fill="#1d1d1b"/><path d="M650.117,93.967h-1.14c-.252-1.175-1.139-1.823-2.398-1.823-1.811,0-2.902,1.427-2.902,3.466,0,2.171,1.044,3.586,2.914,3.586,1.403,0,2.363-.972,2.471-2.471h1.14c-.24,2.207-1.595,3.43-3.706,3.43-1.224,0-2.194-.408-2.902-1.211-.708-.816-1.056-1.895-1.056-3.25,0-1.331.36-2.411,1.092-3.25.731-.84,1.715-1.259,2.962-1.259,1.871,0,3.274,1.043,3.526,2.782Z" fill="#1d1d1b"/><path d="M652.533,91.388v8.563h-1.02v-8.563h1.02Z" fill="#1d1d1b"/><path d="M654.01,91.185c1.283,1.967,1.883,3.682,1.883,5.613s-.684,3.898-1.883,5.529h-.78c1.08-1.703,1.584-3.418,1.584-5.529,0-2.123-.504-3.886-1.584-5.613h.78Z" fill="#1d1d1b"/><rect x="579.384" y="115.634" width="107.226" height="16.258" fill="none"/><path d="M581.519,119.483l4.51,6.944h.024v-6.944h1.079v8.563h-1.247l-4.474-6.872h-.024v6.872h-1.079v-8.563h1.211Z" fill="#1d1d1b"/><path d="M593.469,122.662c.492.636.732,1.463.732,2.471v.12h-4.642v.072c0,1.188.731,1.967,1.931,1.967.911,0,1.439-.444,1.607-1.211h1.007c-.275,1.379-1.247,2.111-2.65,2.111-.647,0-1.199-.144-1.643-.432-.912-.6-1.332-1.775-1.332-2.854,0-.912.265-1.667.815-2.279.552-.612,1.26-.924,2.1-.924.888,0,1.583.324,2.074.959ZM593.121,124.353c-.06-.996-.791-1.751-1.799-1.751-.959,0-1.679.695-1.763,1.751h3.562Z" fill="#1d1d1b"/><path d="M599.637,122.734h.013v-.888h.959v5.733c0,1.955-.923,2.986-2.866,2.986-1.403,0-2.519-.624-2.579-1.823h1.02c.036.647.816,1.007,1.607,1.007,1.199,0,1.859-.804,1.859-2.375v-.384h-.024c-.312.684-1.067,1.127-1.931,1.127-1.68,0-2.771-1.271-2.771-3.142,0-1.883,1.031-3.274,2.854-3.274.875,0,1.511.408,1.858,1.032ZM597.754,127.219c1.128,0,1.848-.959,1.848-2.398,0-1.308-.636-2.219-1.775-2.219s-1.823.899-1.823,2.254c0,1.451.636,2.363,1.751,2.363Z" fill="#1d1d1b"/><path d="M607.005,123.37v3.574c0,.228.107.348.323.348.096,0,.216-.024.312-.06v.792c-.192.108-.444.168-.732.168-.552,0-.863-.312-.863-.959-.54.636-1.271.959-2.183.959-1.271,0-2.051-.624-2.051-1.739,0-.552.18-.996.54-1.319.348-.335,1.175-.576,2.506-.744.899-.108,1.14-.324,1.14-.768,0-.684-.42-1.019-1.379-1.019-1.008,0-1.499.372-1.548,1.175h-1.02c.072-1.379,1.008-2.075,2.639-2.075,1.751,0,2.315.696,2.315,1.667ZM604.09,127.292c1.188,0,1.896-.696,1.896-1.379v-1.067c-.168.12-.444.216-.72.252l-1.044.156c-.899.132-1.331.479-1.331,1.127,0,.576.444.912,1.199.912Z" fill="#1d1d1b"/><path d="M610.006,119.987v1.859h1.235v.899h-1.235v3.886c0,.312.097.468.312.492.204.012.42.024.636.024h.287v.899h-.839c-1.128,0-1.415-.36-1.415-1.295v-4.006h-1.056v-.899h1.056v-1.859h1.019Z" fill="#1d1d1b"/><path d="M613.45,119.483v1.248h-1.02v-1.248h1.02ZM613.45,121.846v6.201h-1.02v-6.201h1.02Z" fill="#1d1d1b"/><path d="M615.574,121.846l1.739,5.169h.023l1.691-5.169h1.067l-2.267,6.201h-1.092l-2.303-6.201h1.14Z" fill="#1d1d1b"/><path d="M625.688,122.662c.492.636.732,1.463.732,2.471v.12h-4.642v.072c0,1.188.731,1.967,1.931,1.967.911,0,1.439-.444,1.607-1.211h1.007c-.275,1.379-1.247,2.111-2.65,2.111-.647,0-1.199-.144-1.643-.432-.912-.6-1.332-1.775-1.332-2.854,0-.912.265-1.667.815-2.279.552-.612,1.26-.924,2.1-.924.888,0,1.583.324,2.074.959ZM625.34,124.353c-.06-.996-.791-1.751-1.799-1.751-.959,0-1.679.695-1.763,1.751h3.562Z" fill="#1d1d1b"/><path d="M633.273,119.28c-1.079,1.703-1.583,3.418-1.583,5.529,0,2.159.492,3.862,1.583,5.613h-.779c-1.379-2.159-1.883-3.778-1.883-5.613,0-1.871.672-3.898,1.883-5.529h.779Z" fill="#1d1d1b"/><path d="M637.101,119.483c2.578,0,4.042,1.392,4.042,4.078,0,3.022-1.428,4.485-4.042,4.485h-3.011v-8.563h3.011ZM637.16,127.087c1.703,0,2.843-1.104,2.843-3.37s-.947-3.274-2.795-3.274h-1.979v6.645h1.931Z" fill="#1d1d1b"/><path d="M644.121,119.483l2.698,7.196,2.711-7.196h1.559v8.563h-1.079v-7.124h-.024l-2.674,7.124h-.972l-2.675-7.124h-.023v7.124h-1.08v-8.563h1.56Z" fill="#1d1d1b"/><path d="M659.023,121.99h-1.08c-.132-1.175-.839-1.751-2.122-1.751-1.224,0-1.919.528-1.919,1.463,0,.336.155.6.432.828.287.216,1.055.444,2.314.696,1.835.372,2.734,1.104,2.734,2.471,0,.803-.336,1.427-.983,1.871-.647.456-1.439.684-2.362.684-2.051,0-3.526-1.056-3.538-3.022h1.079c.012,1.319,1.031,2.063,2.494,2.063,1.38,0,2.171-.552,2.171-1.56,0-.803-.563-1.259-2.41-1.607-1.224-.24-2.027-.528-2.447-.888-.419-.372-.623-.852-.623-1.451,0-1.583,1.331-2.506,3.106-2.506,1.895,0,3.142.971,3.154,2.71Z" fill="#1d1d1b"/><path d="M668.49,123.765c0,2.615-1.619,4.486-4.102,4.486-2.567,0-4.103-1.979-4.103-4.486,0-1.295.372-2.363,1.116-3.214.743-.852,1.738-1.271,2.986-1.271,2.603,0,4.102,2.027,4.102,4.485ZM664.388,127.292c1.87,0,2.962-1.5,2.962-3.526,0-1.007-.264-1.859-.779-2.519-.528-.671-1.26-1.007-2.195-1.007-.923,0-1.643.336-2.171,1.007-.516.672-.779,1.511-.779,2.519,0,2.075,1.163,3.526,2.963,3.526Z" fill="#1d1d1b"/><path d="M669.61,119.28c1.283,1.967,1.883,3.682,1.883,5.613s-.684,3.898-1.883,5.529h-.779c1.079-1.703,1.583-3.418,1.583-5.529,0-2.123-.504-3.886-1.583-5.613h.779Z" fill="#1d1d1b"/><rect x="544.743" y="145.028" width="28.444" height="14.048" fill="#ddd2e9" stroke="#1d1d1b" stroke-miterlimit="10"/><rect x="561.012" y="201.025" width="28.444" height="14.048" fill="#cfe3f6" stroke="#1d1d1b" stroke-miterlimit="10"/><rect x="640.863" y="201.025" width="28.444" height="14.048" fill="#ddd2e9" stroke="#1d1d1b" stroke-miterlimit="10"/><rect x="536.381" y="242.062" width="77.705" height="16.258" fill="none"/><path d="M544.074,245.912l2.699,7.196,2.71-7.196h1.56v8.563h-1.08v-7.124h-.023l-2.675,7.124h-.972l-2.674-7.124h-.024v7.124h-1.079v-8.563h1.559Z" fill="#1d1d1b"/><path d="M558.46,251.38c0,1.919-1.188,3.238-3.011,3.238-1.799,0-3.01-1.259-3.01-3.238s1.151-3.25,3.01-3.25c1.907,0,3.011,1.355,3.011,3.25ZM555.449,253.719c1.116,0,1.932-.936,1.932-2.339s-.815-2.351-1.943-2.351c-1.079,0-1.919.911-1.919,2.351,0,1.403.804,2.339,1.931,2.339Z" fill="#1d1d1b"/><path d="M564.796,250.349v4.126h-1.02v-4.234c0-.684-.443-1.211-1.271-1.211-1.163,0-1.822.779-1.822,1.907v3.538h-1.02v-6.201h.959v.983h.024c.455-.779,1.104-1.127,2.015-1.127,1.499,0,2.135.792,2.135,2.219Z" fill="#1d1d1b"/><path d="M572.02,251.38c0,1.919-1.188,3.238-3.011,3.238-1.799,0-3.01-1.259-3.01-3.238s1.151-3.25,3.01-3.25c1.907,0,3.011,1.355,3.011,3.25ZM569.009,253.719c1.116,0,1.932-.936,1.932-2.339s-.815-2.351-1.943-2.351c-1.079,0-1.919.911-1.919,2.351,0,1.403.804,2.339,1.931,2.339Z" fill="#1d1d1b"/><path d="M578.488,250.265h-1.056c-.167-.804-.719-1.235-1.535-1.235-1.259,0-1.931.888-1.931,2.423,0,1.355.684,2.267,1.812,2.267.983,0,1.57-.563,1.703-1.511h1.043c-.228,1.547-1.188,2.41-2.734,2.41-1.812,0-2.902-1.224-2.902-3.166,0-2.015,1.104-3.322,2.926-3.322,1.5,0,2.507.72,2.675,2.135Z" fill="#1d1d1b"/><path d="M580.686,248.274v4.222c0,.72.479,1.224,1.26,1.224,1.188,0,1.835-.779,1.835-1.907v-3.538h1.02v6.201h-.96v-.983h-.023c-.444.791-1.151,1.127-2.016,1.127-1.451,0-2.135-.756-2.135-2.207v-4.138h1.02Z" fill="#1d1d1b"/><path d="M587.418,245.912v8.563h-1.02v-8.563h1.02Z" fill="#1d1d1b"/><path d="M590.417,246.416v1.858h1.235v.899h-1.235v3.887c0,.312.097.468.312.491.204.012.42.024.636.024h.287v.899h-.839c-1.128,0-1.415-.36-1.415-1.296v-4.006h-1.056v-.899h1.056v-1.858h1.019Z" fill="#1d1d1b"/><path d="M593.802,248.274v4.222c0,.72.479,1.224,1.259,1.224,1.188,0,1.835-.779,1.835-1.907v-3.538h1.02v6.201h-.959v-.983h-.024c-.443.791-1.151,1.127-2.015,1.127-1.451,0-2.135-.756-2.135-2.207v-4.138h1.02Z" fill="#1d1d1b"/><path d="M602.68,248.13v1.079c-1.522,0-2.242.792-2.242,2.495v2.771h-1.02v-6.201h.959v1.308h.024c.479-.983,1.163-1.451,2.135-1.451h.144Z" fill="#1d1d1b"/><path d="M607.888,249.089c.491.636.731,1.464.731,2.471v.12h-4.642v.072c0,1.188.731,1.967,1.931,1.967.912,0,1.439-.443,1.607-1.211h1.008c-.276,1.379-1.247,2.11-2.65,2.11-.648,0-1.2-.144-1.644-.432-.911-.6-1.331-1.775-1.331-2.854,0-.911.264-1.667.815-2.278.552-.612,1.26-.924,2.099-.924.888,0,1.583.324,2.075.959ZM607.54,250.781c-.061-.995-.792-1.751-1.799-1.751-.96,0-1.68.695-1.764,1.751h3.562Z" fill="#1d1d1b"/><rect x="623.561" y="242.062" width="63.05" height="16.258" fill="none"/><path d="M634.844,248.49h-1.14c-.252-1.175-1.139-1.822-2.398-1.822-1.811,0-2.902,1.427-2.902,3.466,0,2.171,1.044,3.586,2.914,3.586,1.403,0,2.363-.972,2.471-2.471h1.14c-.24,2.207-1.595,3.431-3.706,3.431-1.224,0-2.194-.408-2.902-1.212-.707-.815-1.056-1.895-1.056-3.25,0-1.331.36-2.411,1.092-3.25.731-.84,1.715-1.26,2.962-1.26,1.871,0,3.274,1.044,3.526,2.782Z" fill="#1d1d1b"/><path d="M641.865,251.38c0,1.919-1.188,3.238-3.011,3.238-1.799,0-3.01-1.259-3.01-3.238s1.151-3.25,3.01-3.25c1.907,0,3.011,1.355,3.011,3.25ZM638.854,253.719c1.116,0,1.932-.936,1.932-2.339s-.815-2.351-1.943-2.351c-1.079,0-1.919.911-1.919,2.351,0,1.403.804,2.339,1.931,2.339Z" fill="#1d1d1b"/><path d="M646.366,250.661v.96h-3.466v-.96h3.466Z" fill="#1d1d1b"/><path d="M653,250.265h-1.056c-.167-.804-.719-1.235-1.535-1.235-1.259,0-1.931.888-1.931,2.423,0,1.355.684,2.267,1.812,2.267.983,0,1.571-.563,1.703-1.511h1.043c-.228,1.547-1.188,2.41-2.734,2.41-1.812,0-2.902-1.224-2.902-3.166,0-2.015,1.104-3.322,2.927-3.322,1.499,0,2.506.72,2.674,2.135Z" fill="#1d1d1b"/><path d="M655.199,248.274v4.222c0,.72.479,1.224,1.26,1.224,1.188,0,1.835-.779,1.835-1.907v-3.538h1.02v6.201h-.96v-.983h-.023c-.444.791-1.151,1.127-2.016,1.127-1.451,0-2.135-.756-2.135-2.207v-4.138h1.02Z" fill="#1d1d1b"/><path d="M661.931,245.912v8.563h-1.02v-8.563h1.02Z" fill="#1d1d1b"/><path d="M664.93,246.416v1.858h1.235v.899h-1.235v3.887c0,.312.096.468.312.491.204.012.42.024.636.024h.288v.899h-.84c-1.127,0-1.415-.36-1.415-1.296v-4.006h-1.056v-.899h1.056v-1.858h1.02Z" fill="#1d1d1b"/><path d="M668.314,248.274v4.222c0,.72.479,1.224,1.26,1.224,1.188,0,1.835-.779,1.835-1.907v-3.538h1.02v6.201h-.96v-.983h-.023c-.444.791-1.151,1.127-2.016,1.127-1.451,0-2.135-.756-2.135-2.207v-4.138h1.02Z" fill="#1d1d1b"/><path d="M677.193,248.13v1.079c-1.523,0-2.243.792-2.243,2.495v2.771h-1.02v-6.201h.96v1.308h.023c.48-.983,1.164-1.451,2.136-1.451h.144Z" fill="#1d1d1b"/><path d="M682.4,249.089c.492.636.732,1.464.732,2.471v.12h-4.642v.072c0,1.188.731,1.967,1.931,1.967.911,0,1.439-.443,1.607-1.211h1.007c-.275,1.379-1.247,2.11-2.65,2.11-.647,0-1.199-.144-1.643-.432-.912-.6-1.332-1.775-1.332-2.854,0-.911.265-1.667.816-2.278.551-.612,1.259-.924,2.099-.924.888,0,1.583.324,2.074.959ZM682.052,250.781c-.06-.995-.791-1.751-1.799-1.751-.959,0-1.679.695-1.763,1.751h3.562Z" fill="#1d1d1b"/><line x1="575.234" y1="222.096" x2="575.234" y2="236.758" fill="none" stroke="#1d1d1b" stroke-miterlimit="10" stroke-width=".5"/><path d="M575.234,238.871c-.369-.994-.998-2.227-1.665-2.992l1.665.602,1.664-.602c-.667.764-1.296,1.998-1.664,2.992Z" fill="#1d1d1b"/><line x1="655.085" y1="222.096" x2="655.085" y2="236.758" fill="none" stroke="#1d1d1b" stroke-miterlimit="10" stroke-width=".5"/><path d="M655.085,238.87c-.369-.994-.998-2.227-1.665-2.992l1.665.602,1.664-.602c-.667.764-1.296,1.998-1.664,2.992Z" fill="#1d1d1b"/><rect x="579.507" y="142.523" width="110.98" height="37.363" fill="none"/><path d="M581.642,147.975l4.51,6.944h.024v-6.944h1.079v8.563h-1.247l-4.474-6.872h-.024v6.872h-1.079v-8.563h1.211Z" fill="#1d1d1b"/><path d="M593.592,151.153c.492.636.732,1.463.732,2.471v.12h-4.642v.072c0,1.188.731,1.967,1.931,1.967.911,0,1.439-.444,1.607-1.211h1.007c-.275,1.379-1.247,2.111-2.65,2.111-.647,0-1.199-.144-1.643-.432-.912-.6-1.332-1.775-1.332-2.854,0-.912.265-1.667.815-2.279.552-.612,1.26-.924,2.1-.924.888,0,1.583.324,2.074.959ZM593.244,152.845c-.06-.996-.791-1.751-1.799-1.751-.959,0-1.679.695-1.763,1.751h3.562Z" fill="#1d1d1b"/><path d="M599.76,151.226h.013v-.888h.959v5.733c0,1.955-.923,2.986-2.866,2.986-1.403,0-2.519-.624-2.579-1.823h1.02c.036.647.816,1.007,1.607,1.007,1.199,0,1.859-.804,1.859-2.375v-.384h-.024c-.312.684-1.067,1.127-1.931,1.127-1.68,0-2.771-1.271-2.771-3.142,0-1.883,1.031-3.274,2.854-3.274.875,0,1.511.408,1.858,1.032ZM597.877,155.711c1.128,0,1.848-.959,1.848-2.398,0-1.308-.636-2.219-1.775-2.219s-1.823.899-1.823,2.254c0,1.451.636,2.363,1.751,2.363Z" fill="#1d1d1b"/><path d="M607.128,151.861v3.574c0,.228.107.348.323.348.096,0,.216-.024.312-.06v.792c-.192.108-.444.168-.732.168-.552,0-.863-.312-.863-.959-.54.636-1.271.959-2.183.959-1.271,0-2.051-.624-2.051-1.739,0-.552.18-.995.54-1.319.348-.335,1.175-.576,2.506-.744.899-.108,1.14-.324,1.14-.768,0-.684-.42-1.019-1.379-1.019-1.008,0-1.499.372-1.548,1.175h-1.02c.072-1.379,1.008-2.075,2.639-2.075,1.751,0,2.315.696,2.315,1.667ZM604.213,155.783c1.188,0,1.896-.696,1.896-1.379v-1.067c-.168.12-.444.216-.72.252l-1.044.156c-.899.132-1.331.479-1.331,1.127,0,.576.444.912,1.199.912Z" fill="#1d1d1b"/><path d="M610.129,148.479v1.859h1.235v.899h-1.235v3.886c0,.312.097.468.312.492.204.012.42.024.636.024h.287v.899h-.839c-1.128,0-1.415-.36-1.415-1.295v-4.006h-1.056v-.899h1.056v-1.859h1.019Z" fill="#1d1d1b"/><path d="M613.574,147.975v1.248h-1.02v-1.248h1.02ZM613.574,150.338v6.201h-1.02v-6.201h1.02Z" fill="#1d1d1b"/><path d="M615.698,150.338l1.739,5.169h.023l1.691-5.169h1.067l-2.267,6.201h-1.092l-2.303-6.201h1.14Z" fill="#1d1d1b"/><path d="M625.811,151.153c.492.636.732,1.463.732,2.471v.12h-4.642v.072c0,1.188.731,1.967,1.931,1.967.911,0,1.439-.444,1.607-1.211h1.007c-.275,1.379-1.247,2.111-2.65,2.111-.647,0-1.199-.144-1.643-.432-.912-.6-1.332-1.775-1.332-2.854,0-.912.265-1.667.815-2.279.552-.612,1.26-.924,2.1-.924.888,0,1.583.324,2.074.959ZM625.463,152.845c-.06-.996-.791-1.751-1.799-1.751-.959,0-1.679.695-1.763,1.751h3.562Z" fill="#1d1d1b"/><path d="M633.396,147.772c-1.079,1.703-1.583,3.418-1.583,5.529,0,2.159.492,3.862,1.583,5.613h-.779c-1.379-2.159-1.883-3.778-1.883-5.613,0-1.871.672-3.898,1.883-5.529h.779Z" fill="#1d1d1b"/><path d="M637.224,147.975c2.578,0,4.042,1.392,4.042,4.078,0,3.022-1.428,4.485-4.042,4.485h-3.011v-8.563h3.011ZM637.283,155.579c1.703,0,2.843-1.104,2.843-3.37s-.947-3.274-2.795-3.274h-1.979v6.645h1.931Z" fill="#1d1d1b"/><path d="M644.244,147.975l2.698,7.196,2.711-7.196h1.559v8.563h-1.079v-7.124h-.024l-2.674,7.124h-.972l-2.675-7.124h-.023v7.124h-1.08v-8.563h1.56Z" fill="#1d1d1b"/><path d="M659.146,150.482h-1.08c-.132-1.175-.839-1.751-2.122-1.751-1.224,0-1.919.528-1.919,1.463,0,.336.155.6.432.828.287.216,1.055.444,2.314.696,1.835.372,2.734,1.104,2.734,2.471,0,.803-.336,1.427-.983,1.871-.647.456-1.439.684-2.362.684-2.051,0-3.526-1.056-3.538-3.022h1.079c.012,1.319,1.031,2.063,2.494,2.063,1.38,0,2.171-.552,2.171-1.56,0-.803-.563-1.259-2.41-1.607-1.224-.24-2.027-.528-2.447-.888-.419-.372-.623-.851-.623-1.451,0-1.583,1.331-2.506,3.106-2.506,1.895,0,3.142.971,3.154,2.71Z" fill="#1d1d1b"/><path d="M668.613,152.257c0,2.615-1.619,4.486-4.102,4.486-2.567,0-4.103-1.979-4.103-4.486,0-1.295.372-2.363,1.116-3.214.743-.851,1.738-1.271,2.986-1.271,2.603,0,4.102,2.027,4.102,4.485ZM664.511,155.783c1.87,0,2.962-1.5,2.962-3.526,0-1.007-.264-1.859-.779-2.519-.528-.671-1.26-1.007-2.195-1.007-.923,0-1.643.336-2.171,1.007-.516.672-.779,1.511-.779,2.519,0,2.075,1.163,3.526,2.963,3.526Z" fill="#1d1d1b"/><path d="M674.998,150.482c0,.587-.168,1.115-.492,1.583-.323.48-1.02,1.02-2.087,1.631-1.307.755-1.751,1.283-1.871,1.943h4.366v.899h-5.554c.061-.708.24-1.319.54-1.859.312-.528.899-1.043,1.728-1.547.983-.587,1.619-1.079,1.883-1.415.275-.348.407-.756.407-1.235,0-.899-.72-1.547-1.643-1.547-1.044,0-1.655.864-1.655,2.027v.084h-1.02l-.012-.216c0-1.679,1.079-2.794,2.746-2.794,1.571,0,2.663.948,2.663,2.447Z" fill="#1d1d1b"/><path d="M676.405,147.772c1.283,1.967,1.883,3.682,1.883,5.613s-.684,3.898-1.883,5.529h-.779c1.079-1.703,1.583-3.418,1.583-5.529,0-2.123-.504-3.886-1.583-5.613h.779Z" fill="#1d1d1b"/><path d="M630.216,168.37v2.627h2.614v.815h-2.614v2.626h-.815v-2.626h-2.614v-.815h2.614v-2.627h.815Z" fill="#1d1d1b"/><path d="M640.258,165.875v.959h-4.773v2.723h4.45v.959h-4.45v2.962h4.81v.959h-5.948v-8.563h5.912Z" fill="#1d1d1b"/><path d="M644.304,165.875v.888c-.155-.06-.42-.084-.575-.084-.563,0-.78.252-.78.672v.887h1.2v.899h-1.2v5.301h-1.019v-5.301h-1.044v-.899h1.044v-.971c0-.912.575-1.487,1.703-1.487.155,0,.527.048.671.096Z" fill="#1d1d1b"/><path d="M647.64,165.875v.888c-.155-.06-.42-.084-.575-.084-.563,0-.78.252-.78.672v.887h1.2v.899h-1.2v5.301h-1.019v-5.301h-1.044v-.899h1.044v-.971c0-.912.575-1.487,1.703-1.487.155,0,.527.048.671.096Z" fill="#1d1d1b"/><path d="M653.051,169.053c.491.636.731,1.463.731,2.471v.12h-4.642v.072c0,1.188.731,1.967,1.931,1.967.912,0,1.439-.444,1.607-1.211h1.008c-.276,1.379-1.247,2.111-2.65,2.111-.648,0-1.2-.144-1.644-.432-.911-.6-1.331-1.775-1.331-2.854,0-.912.264-1.667.815-2.279.552-.612,1.26-.924,2.099-.924.888,0,1.583.324,2.075.959ZM652.703,170.745c-.061-.996-.792-1.751-1.799-1.751-.96,0-1.68.695-1.764,1.751h3.562Z" fill="#1d1d1b"/><path d="M660.107,170.229h-1.056c-.168-.804-.72-1.235-1.535-1.235-1.26,0-1.931.887-1.931,2.422,0,1.355.684,2.267,1.811,2.267.983,0,1.571-.564,1.703-1.511h1.044c-.229,1.547-1.188,2.411-2.735,2.411-1.811,0-2.902-1.224-2.902-3.167,0-2.015,1.104-3.322,2.927-3.322,1.499,0,2.507.72,2.675,2.135Z" fill="#1d1d1b"/><path d="M662.7,166.379v1.859h1.235v.899h-1.235v3.886c0,.312.096.468.312.492.204.012.42.024.636.024h.288v.899h-.84c-1.127,0-1.415-.36-1.415-1.295v-4.006h-1.056v-.899h1.056v-1.859h1.02Z" fill="#1d1d1b"/><path d="M670.75,171.344c0,1.919-1.188,3.238-3.011,3.238-1.799,0-3.011-1.259-3.011-3.238s1.151-3.25,3.011-3.25c1.907,0,3.011,1.355,3.011,3.25ZM667.74,173.683c1.115,0,1.931-.936,1.931-2.339s-.815-2.351-1.942-2.351c-1.08,0-1.919.911-1.919,2.351,0,1.403.804,2.339,1.931,2.339Z" fill="#1d1d1b"/><path d="M675.179,168.094v1.08c-1.523,0-2.243.792-2.243,2.495v2.771h-1.02v-6.201h.96v1.307h.023c.48-.983,1.164-1.451,2.136-1.451h.144Z" fill="#1d1d1b"/><rect x="0" y="20.777" width="15.213" height="9.693" fill="none"/><path d="M8.594,20.782l3.202,8.563h-1.955l-.648-1.907h-3.202l-.672,1.907h-1.907l3.25-8.563h1.931ZM7.598,22.893l-1.115,3.143h2.219l-1.08-3.143h-.024Z" fill="#1d1d1b"/><rect x="0" y="34.825" width="15.213" height="9.693" fill="none"/><path d="M8.252,34.829c1.751,0,2.723.636,2.723,2.111,0,.888-.432,1.439-1.163,1.799,1.055.3,1.571,1.104,1.571,2.171,0,1.703-1.427,2.482-3.022,2.482h-4.149v-8.563h4.042ZM8.012,38.296c.684,0,1.14-.324,1.14-1.02,0-.684-.456-.983-1.271-.983h-1.787v2.003h1.919ZM8.12,41.929c.875,0,1.379-.36,1.379-1.127,0-.827-.492-1.223-1.343-1.223h-2.063v2.351h2.027Z" fill="#1d1d1b"/><rect x=".194" y="48.873" width="15.213" height="9.693" fill="none"/><path d="M11.714,51.755h-1.823c-.132-.839-.936-1.499-1.871-1.499-1.535,0-2.327,1.211-2.327,2.938,0,1.607.755,2.866,2.327,2.866,1.079,0,1.787-.695,1.943-1.919h1.823c-.192,2.159-1.667,3.502-3.766,3.502-2.615,0-4.21-1.943-4.21-4.45,0-2.531,1.559-4.521,4.21-4.521,1.919,0,3.478,1.151,3.694,3.082Z" fill="#1d1d1b"/><rect x=".194" y="62.92" width="15.213" height="9.693" fill="none"/><path d="M7.852,62.924c2.375,0,3.91,1.535,3.91,4.234s-1.463,4.33-3.862,4.33h-3.718v-8.563h3.67ZM7.732,69.905c1.175,0,2.147-.732,2.147-2.579,0-2.039-.899-2.818-2.471-2.818h-1.343v5.397h1.667Z" fill="#1d1d1b"/><rect y="76.774" width="15.213" height="9.693" fill="none"/><path d="M10.95,76.778v1.583h-4.521v1.835h4.15v1.463h-4.15v2.099h4.618v1.583h-6.5v-8.563h6.404Z" fill="#1d1d1b"/><rect x="0" y="90.822" width="15.213" height="9.693" fill="none"/><path d="M10.897,90.826v1.583h-4.138v1.979h3.586v1.463h-3.586v3.538h-1.883v-8.563h6.021Z" fill="#1d1d1b"/><rect y="105.063" width="15.213" height="9.693" fill="none"/><path d="M11.328,107.886h-1.799c-.228-.959-.899-1.439-1.811-1.439-1.559,0-2.327,1.259-2.327,2.938,0,1.499.684,2.866,2.327,2.866,1.199,0,1.919-.611,2.039-1.847h-1.895v-1.403h3.598v4.629h-1.199l-.192-.972c-.624.804-1.439,1.176-2.351,1.176-2.615,0-4.21-1.955-4.21-4.45,0-2.542,1.559-4.521,4.21-4.521,1.835,0,3.442,1.151,3.61,3.022Z" fill="#1d1d1b"/><rect x=".194" y="119.11" width="15.213" height="9.693" fill="none"/><path d="M6.065,119.115v3.286h3.466v-3.286h1.883v8.563h-1.883v-3.694h-3.466v3.694h-1.883v-8.563h1.883Z" fill="#1d1d1b"/><rect x=".194" y="133.158" width="15.213" height="9.693" fill="none"/><path d="M8.741,133.162v8.563h-1.883v-8.563h1.883Z" fill="#1d1d1b"/><rect x="0" y="147.012" width="15.213" height="9.693" fill="none"/><path d="M10.111,147.016v5.877c0,1.871-.947,2.891-2.831,2.891-1.739,0-2.842-1.032-2.842-2.627v-.768h1.703v.42c0,1.007.372,1.391,1.091,1.391.936,0,.996-.684.996-1.331v-5.853h1.883Z" fill="#1d1d1b"/><rect x="0" y="161.253" width="15.213" height="9.693" fill="none"/><path d="M5.985,161.257v3.55l3.346-3.55h2.351l-3.346,3.382,3.67,5.181h-2.362l-2.579-3.85-1.08,1.092v2.758h-1.883v-8.563h1.883Z" fill="#1d1d1b"/><rect x=".194" y="175.301" width="15.213" height="9.693" fill="none"/><path d="M6.953,175.305v6.98h4.174v1.583h-6.057v-8.563h1.883Z" fill="#1d1d1b"/><rect x=".194" y="189.155" width="15.213" height="9.693" fill="none"/><path d="M5.836,189.159l2.003,5.889h.024l1.895-5.889h2.65v8.563h-1.763v-6.069h-.024l-2.099,6.069h-1.451l-2.099-6.009h-.024v6.009h-1.763v-8.563h2.65Z" fill="#1d1d1b"/><rect x=".194" y="203.396" width="15.213" height="9.693" fill="none"/><path d="M6.053,203.401l3.574,5.745h.024v-5.745h1.763v8.563h-1.883l-3.562-5.733h-.024v5.733h-1.763v-8.563h1.871Z" fill="#1d1d1b"/><rect x=".194" y="217.443" width="15.213" height="9.693" fill="none"/><path d="M12.007,221.766c0,2.494-1.595,4.449-4.209,4.449s-4.21-1.955-4.21-4.449c0-2.543,1.583-4.521,4.21-4.521,2.59,0,4.209,1.931,4.209,4.521ZM7.798,224.632c1.595,0,2.327-1.308,2.327-2.866,0-1.644-.731-2.938-2.339-2.938-1.571,0-2.314,1.283-2.314,2.938,0,1.595.755,2.866,2.327,2.866Z" fill="#1d1d1b"/><rect x="0" y="231.491" width="15.213" height="9.693" fill="none"/><path d="M8.305,231.496c2.003,0,2.951,1.224,2.951,2.746,0,1.548-.972,2.747-2.938,2.747h-2.003v3.07h-1.883v-8.563h3.874ZM7.814,235.525c1.08,0,1.619-.371,1.619-1.283,0-.875-.503-1.283-1.607-1.283h-1.511v2.566h1.499Z" fill="#1d1d1b"/><rect x="0" y="245.539" width="15.213" height="9.693" fill="none"/><path d="M11.813,249.861c0,1.223-.372,2.303-1.115,3.154l1.067.971-.875.924-1.211-1.104c-.563.324-1.247.504-2.075.504-2.639,0-4.21-1.991-4.21-4.449,0-2.543,1.559-4.521,4.21-4.521,2.566,0,4.209,1.895,4.209,4.521ZM7.616,252.727c.396,0,.612-.012.744-.12l-.803-.731.875-.936.971.888c.36-.479.528-1.176.528-1.967,0-1.728-.792-2.938-2.339-2.938-1.535,0-2.314,1.247-2.314,2.938,0,1.295.54,2.866,2.338,2.866Z" fill="#1d1d1b"/><rect x="0" y="259.586" width="15.213" height="9.693" fill="none"/><path d="M8.72,259.591c1.511,0,2.507,1.043,2.507,2.362,0,1.08-.456,1.787-1.355,2.147v.023c1.2.336,1.235,1.655,1.271,2.459.036.815.12,1.271.336,1.571h-1.883c-.144-.36-.192-.876-.24-1.487-.096-1.199-.288-1.859-1.475-1.859h-1.895v3.347h-1.883v-8.563h4.617ZM8.06,263.465c.792,0,1.284-.324,1.284-1.224,0-.852-.468-1.188-1.295-1.188h-2.063v2.411h2.075Z" fill="#1d1d1b"/><rect x="0" y="273.634" width="15.213" height="9.693" fill="none"/><path d="M10.921,276.193h-1.823c-.06-.863-.564-1.296-1.679-1.296-.696,0-1.308.301-1.308.972,0,.624.36.744,2.279,1.224,1.271.324,2.819.756,2.819,2.566,0,1.619-1.284,2.747-3.562,2.747-1.811,0-3.646-.864-3.646-2.986v-.061h1.823c0,1.212.996,1.583,1.883,1.583.864,0,1.679-.288,1.679-1.067,0-.539-.42-.875-1.475-1.14-.636-.167-1.188-.287-1.739-.467-1.295-.433-1.883-1.164-1.883-2.255,0-1.728,1.631-2.579,3.202-2.579,1.835,0,3.43.815,3.43,2.759Z" fill="#1d1d1b"/><rect x="0" y="287.488" width="15.213" height="9.693" fill="none"/><path d="M11.113,287.492v1.584h-2.566v6.979h-1.883v-6.979h-2.567v-1.584h7.016Z" fill="#1d1d1b"/></svg>